<svg width="56" height="56" viewBox="0 0 56 56" fill="none" xmlns="http://www.w3.org/2000/svg">
<path d="M18.668 4.66663V11.6666" stroke="#292D32" stroke-width="2" stroke-miterlimit="10" stroke-linecap="round" stroke-linejoin="round"/>
<path d="M37.332 4.66663V11.6666" stroke="#292D32" stroke-width="2" stroke-miterlimit="10" stroke-linecap="round" stroke-linejoin="round"/>
<path d="M8.16797 21.21H47.8346" stroke="#292D32" stroke-width="2" stroke-miterlimit="10" stroke-linecap="round" stroke-linejoin="round"/>
<path d="M18.6667 8.16669C10.5 8.16669 7 12.8334 7 19.8334V20.9997H49V19.8334C49 12.8334 45.5 8.16669 37.3333 8.16669H18.6667Z" fill="#EE0033"/>
<path d="M7 20.9997V39.6667C7 46.6667 10.5 51.3334 18.6667 51.3334H37.3333C45.5 51.3334 49 46.6667 49 39.6667V20.9997M7 20.9997V19.8334C7 12.8334 10.5 8.16669 18.6667 8.16669H37.3333C45.5 8.16669 49 12.8334 49 19.8334V20.9997M7 20.9997H49" stroke="#292D32" stroke-width="2" stroke-miterlimit="10" stroke-linecap="round" stroke-linejoin="round"/>
<path d="M36.6206 31.9667H36.6416" stroke="#292D32" stroke-width="2" stroke-linecap="round" stroke-linejoin="round"/>
<path d="M36.6206 38.9667H36.6416" stroke="#292D32" stroke-width="2" stroke-linecap="round" stroke-linejoin="round"/>
<path d="M27.9898 31.9667H28.0107" stroke="#292D32" stroke-width="2" stroke-linecap="round" stroke-linejoin="round"/>
<path d="M27.9898 38.9667H28.0107" stroke="#292D32" stroke-width="2" stroke-linecap="round" stroke-linejoin="round"/>
<path d="M19.3531 31.9667H19.374" stroke="#292D32" stroke-width="2" stroke-linecap="round" stroke-linejoin="round"/>
<path d="M19.3531 38.9667H19.374" stroke="#292D32" stroke-width="2" stroke-linecap="round" stroke-linejoin="round"/>
</svg>
