<svg width="85" height="85" viewBox="0 0 85 85" fill="none" xmlns="http://www.w3.org/2000/svg">
    <path
        d="M20.0458 54.3058L27.6295 54.9599C28.7785 55.0483 29.8039 56.0736 29.8922 57.2226L30.5463 64.8063C31.0236 66.2382 32.6676 66.9277 34.0465 66.2559L37.1754 64.6826C37.9356 64.3114 38.572 63.286 38.572 62.4375L38.5897 54.3942C38.572 53.8108 38.9079 53.0153 39.3144 52.6087L44.3526 47.5706C45.095 46.8281 45.9966 47.0226 46.4032 47.9949L51.3353 60.4223C52.1131 62.3668 53.9515 62.7557 55.4365 61.2708L57.7169 58.9904C58.9013 57.806 59.3786 55.5609 58.7422 54.0053L53.1207 39.8631C52.9616 39.4566 53.0853 38.8378 53.4035 38.5196L58.7068 33.2163C60.3685 31.5546 61.111 28.3727 60.3862 26.1276C60.1211 25.3321 59.5023 24.7134 58.7068 24.4482C56.4618 23.7234 53.2621 24.4836 51.6004 26.1453L46.2971 31.4486C45.9789 31.7668 45.3602 31.8905 44.9536 31.7314L30.8292 26.1276C29.2912 25.4735 27.0461 25.9508 25.8617 27.1352L23.5813 29.4156C22.0964 30.9006 22.4853 32.739 24.4298 33.5169L36.8572 38.4489C37.8295 38.8202 38.024 39.7571 37.2815 40.4995L32.2434 45.5377C31.8368 45.9443 31.0413 46.2801 30.4756 46.2801L22.4323 46.2978C21.5837 46.2978 20.5761 46.9165 20.1872 47.6943L18.6139 50.8233C17.9068 52.1668 18.5785 53.8285 20.0458 54.3058Z"
        stroke="white" stroke-width="2" stroke-linecap="round" stroke-linejoin="round" />
</svg>