<svg width="56" height="56" viewBox="0 0 56 56" fill="none" xmlns="http://www.w3.org/2000/svg">
    <path
        d="M47.1572 18.2476L29.1905 28.6543C28.4672 29.0743 27.5572 29.0743 26.8105 28.6543L8.84383 18.2476C7.5605 17.501 7.23383 15.751 8.21383 14.6543C8.8905 13.8843 9.6605 13.2543 10.4772 12.811L23.1238 5.81096C25.8305 4.2943 30.2172 4.2943 32.9238 5.81096L45.5705 12.811C46.3872 13.2543 47.1572 13.9076 47.8338 14.6543C48.7672 15.751 48.4405 17.501 47.1572 18.2476Z"
        fill="#D9D9D9" />
    <path
        d="M26.6708 32.993V48.9063C26.6708 50.6797 24.8741 51.8463 23.2874 51.0763C18.4808 48.7197 10.3841 44.3097 10.3841 44.3097C7.53743 42.6997 5.2041 38.6397 5.2041 35.303V23.263C5.2041 21.4197 7.14077 20.253 8.72744 21.163L25.5041 30.893C26.2041 31.3363 26.6708 32.1297 26.6708 32.993Z"
        fill="#D9D9D9" />
    <path
        d="M29.3301 32.993V48.9063C29.3301 50.6797 31.1267 51.8463 32.7134 51.0763C37.5201 48.7197 45.6167 44.3097 45.6167 44.3097C48.4634 42.6997 50.7967 38.6397 50.7967 35.303V23.263C50.7967 21.4197 48.8601 20.253 47.2734 21.163L30.4967 30.893C29.7967 31.3363 29.3301 32.1297 29.3301 32.993Z"
        fill="#D9D9D9" />
</svg>