<svg width="56" height="56" viewBox="0 0 56 56" fill="none" xmlns="http://www.w3.org/2000/svg">
    <path
        d="M47.1572 18.2476L29.1905 28.6543C28.4672 29.0743 27.5572 29.0743 26.8105 28.6543L8.84383 18.2476C7.5605 17.501 7.23383 15.751 8.21383 14.6543C8.8905 13.8843 9.6605 13.2543 10.4772 12.811L23.1238 5.81096C25.8305 4.2943 30.2172 4.2943 32.9238 5.81096L45.5705 12.811C46.3872 13.2543 47.1572 13.9076 47.8338 14.6543C48.7672 15.751 48.4405 17.501 47.1572 18.2476Z"
        fill="white" fill-opacity="0.5" />
    <path
        d="M26.6713 32.9931V48.9064C26.6713 50.6797 24.8746 51.8464 23.2879 51.0764C18.4813 48.7197 10.3846 44.3097 10.3846 44.3097C7.53792 42.6997 5.20459 38.6397 5.20459 35.3031V23.2631C5.20459 21.4197 7.14126 20.2531 8.72792 21.1631L25.5046 30.8931C26.2046 31.3364 26.6713 32.1297 26.6713 32.9931Z"
        fill="white" fill-opacity="0.5" />
    <path
        d="M29.3306 32.9931V48.9064C29.3306 50.6797 31.1272 51.8464 32.7139 51.0764C37.5206 48.7197 45.6172 44.3097 45.6172 44.3097C48.4639 42.6997 50.7972 38.6397 50.7972 35.3031V23.2631C50.7972 21.4197 48.8606 20.2531 47.2739 21.1631L30.4972 30.8931C29.7972 31.3364 29.3306 32.1297 29.3306 32.9931Z"
        fill="white" fill-opacity="0.5" />
</svg>