<svg width="20" height="20" viewBox="0 0 20 20" fill="none" xmlns="http://www.w3.org/2000/svg">
    <path fill-rule="evenodd" clip-rule="evenodd"
        d="M0.913008 3.22551C0.693008 3.77551 0.583008 4.37134 0.583008 4.99467C0.583008 5.94801 0.803008 6.94717 1.24301 7.99217C1.68301 9.02801 2.28801 10.073 3.03967 11.118C3.80051 12.163 4.65301 13.1622 5.59717 14.1155C6.55051 15.0597 7.54967 15.9122 8.60384 16.6822C9.64884 17.443 10.703 18.048 11.7572 18.4972C12.8113 18.9463 13.8105 19.1663 14.7455 19.1663C15.3872 19.1663 15.983 19.0472 16.533 18.818C17.0922 18.5888 17.5872 18.2313 18.0363 17.7363C18.3022 17.443 18.5038 17.1313 18.6597 16.8013C18.8155 16.4713 18.8888 16.1322 18.8888 15.8022C18.8888 15.5455 18.8338 15.3163 18.7422 15.0872C18.6413 14.858 18.4763 14.6655 18.238 14.5005L15.2038 12.3463C14.9747 12.1905 14.7638 12.0713 14.5622 11.9888C14.3605 11.9063 14.1772 11.8697 14.003 11.8697C13.7738 11.8697 13.563 11.9338 13.3522 12.0622C13.1413 12.1722 12.9213 12.3463 12.6922 12.5755L11.9955 13.263C11.8947 13.3638 11.7755 13.4188 11.6197 13.4188C11.5372 13.4188 11.4638 13.4097 11.3905 13.3822C11.3611 13.3696 11.3336 13.357 11.308 13.3452C11.2778 13.3314 11.2503 13.3188 11.2255 13.3088C10.9138 13.1438 10.5197 12.8688 10.043 12.4655C9.55717 12.053 9.08051 11.6038 8.58551 11.118C8.10884 10.6322 7.66884 10.1463 7.25634 9.66967C6.85301 9.19301 6.56884 8.79884 6.40384 8.49634C6.39392 8.46656 6.3813 8.43679 6.36746 8.4041C6.35573 8.37641 6.34312 8.34664 6.33051 8.31301C6.31218 8.23967 6.30301 8.17551 6.30301 8.10217C6.30301 7.95551 6.34884 7.83634 6.44967 7.73551L7.14634 7.01134C7.36634 6.79134 7.54051 6.57134 7.65968 6.36051C7.78801 6.14967 7.85218 5.92967 7.85218 5.70967C7.85218 5.53551 7.80634 5.34301 7.72384 5.15051C7.64134 4.94884 7.52218 4.73801 7.35718 4.50884L5.23051 1.51134C5.06551 1.27301 4.85467 1.10801 4.61634 0.998008C4.38717 0.888008 4.13051 0.833008 3.87384 0.833008C3.19551 0.833008 2.55384 1.11717 1.96717 1.69467C1.48134 2.15301 1.13301 2.66634 0.913008 3.22551ZM5.37569 6.6883L6.07542 5.96094L6.08568 5.95068C6.19959 5.83677 6.27347 5.74443 6.31824 5.67895C6.28581 5.60906 6.2318 5.51297 6.13987 5.3853L6.13377 5.37682L4.00214 2.37226L3.99722 2.36516C3.99705 2.36492 3.99737 2.36537 3.99722 2.36516C3.99537 2.36411 3.99197 2.36189 3.98775 2.35995L3.97746 2.3552L3.96725 2.35029C3.95346 2.34367 3.92046 2.33301 3.87384 2.33301C3.65925 2.33301 3.37971 2.40903 3.01945 2.76365L3.0081 2.77483L2.99651 2.78577C2.66116 3.10213 2.44312 3.43343 2.30886 3.77469L2.30575 3.7826C2.16131 4.14369 2.08301 4.54911 2.08301 4.99467C2.08301 5.71341 2.24835 6.51379 2.62455 7.40791C3.01321 8.32236 3.55776 9.26902 4.25489 10.2387C4.96753 11.2171 5.76801 12.1559 6.65782 13.0548C7.5574 13.9452 8.49773 14.7471 9.48796 15.4704C10.4507 16.1713 11.4063 16.7172 12.3452 17.1172C13.2487 17.5022 14.0477 17.6663 14.7455 17.6663C15.1968 17.6663 15.5958 17.5835 15.9561 17.4334L15.9642 17.43C16.2932 17.2952 16.6084 17.0778 16.9255 16.7284C17.0862 16.5508 17.2071 16.3645 17.3033 16.1608C17.3661 16.0279 17.3888 15.9072 17.3888 15.8022C17.3888 15.7833 17.3871 15.7669 17.383 15.7477C17.3819 15.7426 17.3805 15.7367 17.3787 15.73L17.3769 15.7287L14.3488 13.5789C14.2118 13.4864 14.1108 13.4303 14.0381 13.3964C14.0028 13.4167 13.9077 13.4813 13.7528 13.6362L13.7458 13.6432L13.0517 14.3282C12.6854 14.6923 12.1923 14.9188 11.6197 14.9188C11.421 14.9188 11.1564 14.8964 10.8638 14.7867L10.8314 14.7745L10.7996 14.7609C10.7517 14.7403 10.7073 14.72 10.683 14.7088L10.6762 14.7057L10.6575 14.6972L10.5943 14.6719L10.5237 14.6345C10.0811 14.4002 9.59515 14.0515 9.07409 13.6106L9.07216 13.6089C8.54733 13.1633 8.04186 12.6862 7.53481 12.1885L7.52471 12.1786L7.51479 12.1685C7.0113 11.6553 6.54985 11.1455 6.12209 10.6512L6.11664 10.6449L6.11126 10.6386C5.68139 10.1306 5.32288 9.64707 5.087 9.21462L5.02305 9.09738L4.98962 8.99709C4.98947 8.99674 4.98932 8.99638 4.98916 8.99601C4.98833 8.99404 4.98735 8.99173 4.98623 8.9891C4.97506 8.96281 4.95046 8.90487 4.92601 8.83969L4.89602 8.7597L4.8753 8.67681C4.83234 8.50498 4.80301 8.31761 4.80301 8.10217C4.80301 7.59738 4.9797 7.09148 5.37569 6.6883Z"
        fill="#292D32" />
    <path fill-rule="evenodd" clip-rule="evenodd"
        d="M11.75 4.04102C11.75 3.6268 12.0858 3.29102 12.5 3.29102C13.5717 3.29102 14.5357 3.95795 15.1849 4.65763C15.5501 5.04901 15.8587 5.48771 16.0797 5.91758C16.2931 6.33258 16.4583 6.80453 16.4583 7.24935C16.4583 7.66356 16.1225 7.99935 15.7083 7.99935C15.2941 7.99935 14.9583 7.66356 14.9583 7.24935C14.9583 7.14417 14.9082 6.91945 14.7457 6.60341C14.591 6.30255 14.3637 5.97616 14.0875 5.68025L14.086 5.67855L14.086 5.67855C13.5619 5.11354 12.9679 4.79102 12.5 4.79102C12.0858 4.79102 11.75 4.45523 11.75 4.04102Z"
        fill="#292D32" />
    <path fill-rule="evenodd" clip-rule="evenodd"
        d="M11.75 0.833008C11.75 0.418794 12.0858 0.0830078 12.5 0.0830078C16.4617 0.0830078 19.6667 3.28796 19.6667 7.24967C19.6667 7.66389 19.3309 7.99967 18.9167 7.99967C18.5025 7.99967 18.1667 7.66389 18.1667 7.24967C18.1667 4.11639 15.6333 1.58301 12.5 1.58301C12.0858 1.58301 11.75 1.24722 11.75 0.833008Z"
        fill="#292D32" />
</svg>