<svg width="64" height="64" viewBox="0 0 64 64" fill="none" xmlns="http://www.w3.org/2000/svg">
    <path
        d="M41.36 7.54666H22.64C16 7.54666 14.5333 10.8533 13.68 14.9067L10.6667 29.3333H53.3333L50.32 14.9067C49.4667 10.8533 48 7.54666 41.36 7.54666Z"
        fill="#EE0033" stroke="white" stroke-width="2" stroke-linecap="round" stroke-linejoin="round" />
    <path
        d="M58.64 52.8533C58.9333 55.9733 56.4267 58.6667 53.2267 58.6667H48.2133C45.3333 58.6667 44.9333 57.44 44.4267 55.92L43.8933 54.32C43.1467 52.1333 42.6667 50.6667 38.8267 50.6667H25.1733C21.3333 50.6667 20.7733 52.32 20.1067 54.32L19.5733 55.92C19.0667 57.44 18.6667 58.6667 15.7867 58.6667H10.7733C7.57333 58.6667 5.06667 55.9733 5.36 52.8533L6.85333 36.6133C7.22667 32.6133 8 29.3333 14.9867 29.3333H49.0133C56 29.3333 56.7733 32.6133 57.1467 36.6133L58.64 52.8533Z"
        stroke="white" stroke-width="2" stroke-linecap="round" stroke-linejoin="round" />
    <path d="M10.6667 21.3333H8" stroke="white" stroke-width="2" stroke-linecap="round" stroke-linejoin="round" />
    <path d="M56 21.3333H53.3333" stroke="white" stroke-width="2" stroke-linecap="round" stroke-linejoin="round" />
    <path d="M32 8V13.3333" stroke="white" stroke-width="2" stroke-linecap="round" stroke-linejoin="round" />
    <path d="M28 13.3333H36" stroke="white" stroke-width="2" stroke-linecap="round" stroke-linejoin="round" />
    <path d="M16 40H24" stroke="white" stroke-width="2" stroke-linecap="round" stroke-linejoin="round" />
    <path d="M40 40H48" stroke="white" stroke-width="2" stroke-linecap="round" stroke-linejoin="round" />
</svg>