<svg width="43" height="42" viewBox="0 0 43 42" fill="none" xmlns="http://www.w3.org/2000/svg">
    <path
        d="M30.5403 34.9645H11.7544C10.9151 34.9645 9.97577 34.305 9.69598 33.5056L1.42219 10.363C0.243076 7.04546 1.62204 6.02623 4.45991 8.0647L12.2541 13.6405C13.5531 14.5398 15.032 14.0802 15.5916 12.6213L19.1089 3.24831C20.2281 0.250563 22.0867 0.250563 23.2058 3.24831L26.7232 12.6213C27.2828 14.0802 28.7617 14.5398 30.0407 13.6405L37.3552 8.42443C40.4729 6.18611 41.9718 7.32525 40.6927 10.9425L32.6188 33.5456C32.319 34.305 31.3797 34.9645 30.5403 34.9645Z"
        stroke="#292D32" stroke-width="2" stroke-linecap="round" stroke-linejoin="round" />
    <path d="M10.1558 41H32.1393" stroke="#1C1F35" stroke-width="2" stroke-linecap="round" stroke-linejoin="round" />
    <path d="M16.1514 25.0121H26.1439" stroke="#EE0033" stroke-width="3" stroke-linecap="round"
        stroke-linejoin="round" />
    <path d="M38.9997 31.251L41.085 25" stroke="#1C1F35" stroke-width="2" stroke-linecap="round"
        stroke-linejoin="round" />
</svg>