<svg width="44" height="49" viewBox="0 0 44 49" fill="none" xmlns="http://www.w3.org/2000/svg">
  <path
    d="M42.6667 15.5832V28.0832C42.6667 33.2916 41.625 36.9374 39.2917 39.2916L26 25.9999L42.1042 9.89575C42.4792 11.5416 42.6667 13.4166 42.6667 15.5832Z"
    stroke="#292D32" stroke-width="1.5" stroke-linecap="round" stroke-linejoin="round" />
  <path
    d="M42.1042 9.89584L9.89581 42.1042C3.62498 40.6667 1 36.3333 1 28.0833V15.5833C1 5.16667 5.16667 1 15.5833 1H28.0833C36.3333 1 40.6667 3.62501 42.1042 9.89584Z"
    stroke="#292D32" stroke-width="2" stroke-linecap="round" stroke-linejoin="round" />
  <path
    d="M39.2914 39.2917C36.9372 41.625 33.2914 42.6667 28.083 42.6667H15.583C13.4164 42.6667 11.5413 42.4792 9.89551 42.1042L25.9997 26L39.2914 39.2917Z"
    stroke="#292D32" stroke-width="2" stroke-linecap="round" stroke-linejoin="round" />
  <path
    d="M9.83331 13.4583C11.25 7.35409 20.4167 7.35409 21.8333 13.4583C22.6458 17.0416 20.3958 20.0833 18.4166 21.9583C16.9791 23.3333 14.7083 23.3333 13.25 21.9583C11.2708 20.0833 8.99998 17.0416 9.83331 13.4583Z"
    stroke="#EE0033" stroke-width="3" />
  <path d="M15.7802 14.9583H15.7989" stroke="#EE0033" stroke-width="3" stroke-linecap="round" stroke-linejoin="round" />
  <path d="M24.0002 7L33.2734 7" stroke="#1C1F35" stroke-width="2" stroke-linecap="round" stroke-linejoin="round" />
  <path d="M17.0002 48L26.2734 48" stroke="#1C1F35" stroke-width="2" stroke-linecap="round" stroke-linejoin="round" />
</svg>