<svg width="56" height="56" viewBox="0 0 56 56" fill="none" xmlns="http://www.w3.org/2000/svg">
    <path
        d="M46.1998 36.1879C46.1998 33.8272 45.3608 31.8078 43.6828 30.1298C42.0048 28.4518 39.9854 27.6127 37.6247 27.6127C35.264 27.6127 33.2446 28.4518 31.5666 30.1298C29.8885 31.8078 29.0495 33.8272 29.0495 36.1879C29.0495 38.5486 29.8885 40.568 31.5666 42.246C33.2446 43.9241 35.264 44.7631 37.6247 44.7631C39.9854 44.7631 42.0048 43.9241 43.6828 42.246C45.3608 40.568 46.1998 38.5486 46.1998 36.1879ZM56 52.1132C56 52.7768 55.7576 53.351 55.2727 53.8359C54.7878 54.3208 54.2135 54.5633 53.55 54.5633C52.8609 54.5633 52.2867 54.3208 51.8273 53.8359L45.2619 47.2897C42.9778 48.872 40.432 49.6632 37.6247 49.6632C35.7999 49.6632 34.0549 49.3091 32.3896 48.6008C30.7243 47.8926 29.2888 46.9356 28.0829 45.7297C26.877 44.5238 25.92 43.0882 25.2117 41.423C24.5035 39.7577 24.1494 38.0127 24.1494 36.1879C24.1494 34.3631 24.5035 32.6181 25.2117 30.9528C25.92 29.2876 26.877 27.852 28.0829 26.6461C29.2888 25.4402 30.7243 24.4832 32.3896 23.775C34.0549 23.0668 35.7999 22.7126 37.6247 22.7126C39.4495 22.7126 41.1945 23.0668 42.8597 23.775C44.525 24.4832 45.9606 25.4402 47.1665 26.6461C48.3723 27.852 49.3294 29.2876 50.0376 30.9528C50.7458 32.6181 51.0999 34.3631 51.0999 36.1879C51.0999 38.9953 50.3088 41.541 48.7265 43.8252L55.2918 50.3905C55.764 50.8627 56 51.4369 56 52.1132Z"
        fill="#626262" fill-opacity="0.5" />
    <path fill-rule="evenodd" clip-rule="evenodd"
        d="M0 6.48583C0 3.88116 2.151 1.75 4.78008 1.75H43.0208C44.2885 1.75 45.5043 2.249 46.4008 3.13709C47.2972 4.02519 47.8008 5.22984 47.8008 6.48583V22.9702C46.3771 21.8332 44.7657 20.9211 43.0208 20.2878V11.2217H4.78008V39.6366H20.663C21.0094 41.3199 21.6057 42.912 22.4114 44.3724H4.78008C3.51232 44.3724 2.29649 43.8734 1.40003 42.9853C0.503663 42.0972 0 40.8926 0 39.6366V6.48583ZM7.9668 6.53009C7.9668 7.41012 7.25347 8.12346 6.37344 8.12346C5.49342 8.12346 4.78008 7.41012 4.78008 6.53009C4.78008 5.65007 5.49342 4.93673 6.37344 4.93673C7.25347 4.93673 7.9668 5.65007 7.9668 6.53009ZM13.1452 6.53009C13.1452 7.41012 12.4319 8.12346 11.5519 8.12346C10.6718 8.12346 9.95851 7.41012 9.95851 6.53009C9.95851 5.65007 10.6718 4.93673 11.5519 4.93673C12.4319 4.93673 13.1452 5.65007 13.1452 6.53009Z"
        fill="#626262" fill-opacity="0.5" />
    <rect x="7.9668" y="15.2936" width="19.917" height="3.9834" rx="1.9917" fill="#626262" fill-opacity="0.5" />
    <rect x="7.9668" y="23.2604" width="11.9502" height="3.9834" rx="1.9917" fill="#626262" fill-opacity="0.5" />
</svg>