<svg width="41" height="44" viewBox="0 0 41 44" fill="none" xmlns="http://www.w3.org/2000/svg">
    <path d="M20.4009 5.85024V1" stroke="#1C1F35" stroke-width="2" stroke-linecap="round" stroke-linejoin="round" />
    <path
        d="M39.8019 28.4844C36.8514 38.7912 23.1899 42.3885 20.7647 42.9543C20.526 43.0151 20.2759 43.0151 20.0372 42.9543C17.6121 42.3885 3.95056 38.7912 1 28.4844V21.5728C0.999972 21.2324 1.10741 20.9007 1.30699 20.6249C1.50658 20.3491 1.78813 20.1433 2.11151 20.0369L19.8957 14.0954C20.2249 13.9941 20.577 13.9941 20.9062 14.0954L38.6904 20.0369C39.0138 20.1433 39.2954 20.3491 39.4949 20.6249C39.6945 20.9007 39.802 21.2324 39.8019 21.5728V28.4844Z"
        stroke="#1C1F35" stroke-width="2" stroke-linecap="round" stroke-linejoin="round" />
    <path d="M20.769 37.7137C18.8503 37.272 8.04148 34.4636 5.70703 26.4172" stroke="#1C1F35" stroke-width="2"
        stroke-linecap="round" stroke-linejoin="round" />
    <path
        d="M5.70703 8.70679V18.4154L20.2984 13.2378L34.8897 18.4154V8.70679C34.8897 7.04993 33.5465 5.70679 31.8897 5.70679H8.70703C7.05018 5.70679 5.70703 7.04994 5.70703 8.70679Z"
        fill="#EE0033" stroke="#1C1F35" stroke-width="2" />
    <path d="M20.4009 30.1017V14.015" stroke="#1C1F35" stroke-width="2" stroke-linecap="round"
        stroke-linejoin="round" />
    <path d="M24.5347 29.2412L24.5347 22.6516" stroke="#1C1F35" stroke-width="2" stroke-linecap="round"
        stroke-linejoin="round" />
    <path d="M9.47217 14.1794V9.47253" stroke="#1C1F35" stroke-width="2" stroke-linecap="round"
        stroke-linejoin="round" />
    <path d="M38.6548 16.062V7.5896" stroke="#1C1F35" stroke-width="2" stroke-linecap="round" stroke-linejoin="round" />
</svg>