<svg width="203" height="176" viewBox="0 0 203 176" fill="none" xmlns="http://www.w3.org/2000/svg">
<g clip-path="url(#clip0_2767_2071)">
<path d="M202.88 89.4053C202.921 89.4065 202.96 89.4077 203 89.4101V91.9673C202.96 91.9685 202.921 91.9697 202.88 91.9722V89.4065V89.4053Z" fill="#868385"/>
<path d="M96.4111 130.338C95.165 132.308 94.0726 134.364 93.0071 136.434C92.8253 136.787 92.5995 136.987 92.2248 137.114C87.5442 138.697 82.8696 140.295 78.1939 141.891C78.0792 141.93 77.9693 141.981 77.857 142.027C77.6618 142.071 77.4592 142.098 77.2712 142.162C68.375 145.189 59.4665 148.18 50.591 151.268C47.1907 152.452 43.9491 152.192 40.7123 150.793C38.2908 149.746 36.3099 148.089 34.3242 146.4C25.539 138.935 16.5451 131.721 7.58907 124.461C7.03619 124.013 6.4894 123.557 5.87793 123.053C9.59802 121.767 13.2144 120.512 16.8356 119.271C17.3092 119.109 17.7986 119.207 18.2758 119.33C19.6379 119.682 20.9145 120.257 22.168 120.874C29.4055 124.435 36.6761 127.93 43.9539 131.41C45.7749 132.28 47.602 133.104 49.6903 132.989C51.781 132.875 53.7643 132.309 55.6707 131.479C58.96 130.047 62.187 128.48 65.4226 126.932C77.9095 120.957 90.3965 114.982 102.879 108.995C110.005 105.576 117.121 102.134 124.241 98.7006C133.861 94.0604 143.481 89.419 153.1 84.7752C157.572 82.6166 162.041 80.4507 166.513 78.2933C167.936 77.6071 169.42 77.3402 171.005 77.5766C173.11 77.8899 175.203 78.2689 177.297 78.6468C177.997 78.7735 178.695 78.9064 179.532 79.0636C177.855 80.0923 176.319 81.0345 174.782 81.9779C172.603 83.315 170.424 84.6496 168.249 85.9916C167.385 86.5242 167.015 87.3006 167.203 88.1246C167.524 89.5238 168.971 90.0808 170.266 89.2874C175.075 86.3426 179.879 83.3893 184.685 80.4409C184.96 80.2727 185.215 80.107 185.585 80.1862C187.17 80.5238 188.759 80.8431 190.352 81.1479C192.02 81.4672 193.629 81.9035 194.958 83.0505C196.343 84.245 197.502 85.6076 198.285 87.2714C199.004 88.7974 199.364 90.3904 198.943 92.0505C198.495 93.8154 197.906 95.5376 197.197 97.2221C196.253 99.4648 194.665 100.907 192.349 101.756C175.706 107.857 159.02 113.84 142.351 119.867C141.289 120.251 140.171 120.512 139.203 121.134C136.552 122.027 133.901 122.919 131.25 123.813C129.925 124.259 128.599 124.706 127.274 125.152C127.35 125.033 127.419 124.91 127.502 124.796C129.799 121.702 132.101 118.612 134.394 115.515C135.092 114.571 135.529 113.508 135.756 112.36C136.198 110.132 135.025 108.342 132.813 107.89C131.702 107.663 130.589 107.752 129.489 107.982C125.885 108.737 122.426 109.957 119.023 111.333C113.401 113.606 108.013 116.322 103.175 120.023C100.417 122.134 97.938 124.517 96.1878 127.563C95.5372 128.695 95.597 129.307 96.4099 130.337L96.4111 130.338Z" fill="#EE0033"/>
<path d="M139.202 121.132C140.17 120.51 141.288 120.251 142.35 119.866C159.019 113.838 175.705 107.855 192.347 101.755C194.664 100.905 196.252 99.4632 197.195 97.2205C197.903 95.5373 198.494 93.8138 198.942 92.0489C199.363 90.3888 199.003 88.7958 198.284 87.2698C197.5 85.606 196.342 84.2434 194.957 83.0489C193.628 81.9019 192.019 81.4656 190.351 81.1463C188.759 80.8415 187.169 80.5222 185.583 80.1846C185.212 80.1054 184.957 80.2711 184.684 80.4393C179.878 83.3877 175.074 86.341 170.265 89.2858C168.969 90.0792 167.521 89.5222 167.201 88.123C167.012 87.299 167.383 86.5226 168.247 85.99C170.422 84.648 172.602 83.3134 174.781 81.9763C176.317 81.0329 177.854 80.0907 179.531 79.062C178.694 78.906 177.996 78.7719 177.296 78.6452C175.202 78.2673 173.109 77.8883 171.003 77.575C169.419 77.3398 167.935 77.6055 166.512 78.2917C162.039 80.4491 157.57 82.615 153.099 84.7736C143.48 89.4162 133.86 94.0588 124.24 98.699C117.121 102.132 110.005 105.575 102.877 108.993C90.3964 114.98 77.9095 120.956 65.4213 126.93C62.1858 128.478 58.9587 130.044 55.6695 131.478C53.7631 132.308 51.7798 132.873 49.689 132.988C47.602 133.102 45.7737 132.278 43.9527 131.408C36.676 127.927 29.4043 124.434 22.1667 120.872C20.9133 120.256 19.6366 119.682 18.2745 119.328C17.7961 119.204 17.3067 119.107 16.8343 119.27C13.2131 120.51 9.59676 121.766 5.87667 123.052C6.48814 123.555 7.0337 124.011 7.58781 124.459C16.5439 131.719 25.5377 138.933 34.3229 146.399C36.3087 148.087 38.2895 149.745 40.711 150.792C43.9478 152.191 47.1894 152.45 50.5898 151.267C59.464 148.178 68.3737 145.187 77.2699 142.161C77.4591 142.096 77.6605 142.069 77.8558 142.026C78.2012 143.062 78.5136 144.111 78.9091 145.128C79.086 145.583 78.9469 145.698 78.5515 145.832C74.3468 147.252 70.1495 148.689 65.9473 150.115C61.0556 151.775 56.1552 153.41 51.2708 155.093C47.259 156.475 43.3595 156.041 39.5161 154.481C36.8908 153.416 34.6293 151.797 32.4922 149.954C25.4035 143.844 18.0927 138 10.8368 132.089C7.54754 129.41 4.24486 126.746 0.939738 124.086C0.295313 123.567 -0.106232 122.968 0.0207003 122.106C0.154955 121.189 0.743237 120.729 1.5805 120.441C6.08171 118.894 10.5854 117.354 15.067 115.751C16.9247 115.086 18.6932 115.322 20.4763 115.943C22.9942 116.821 25.3144 118.125 27.7078 119.273C33.8274 122.211 39.969 125.104 46.0385 128.142C48.5662 129.407 50.9632 129.186 53.425 128.199C56.663 126.901 59.7801 125.337 62.9229 123.833C78.6064 116.331 94.2837 108.815 109.954 101.284C120.603 96.1662 131.236 91.0177 141.875 85.8803C149.374 82.2591 156.888 78.6708 164.358 74.9886C167.256 73.5589 170.205 73.3907 173.301 73.9904C176.945 74.6949 180.596 75.3628 184.253 75.9942C187.165 76.4963 190.047 77.1435 192.933 77.7652C195.233 78.26 197.07 79.5922 198.692 81.2328C200.791 83.3573 202.27 85.8291 202.807 88.8043C202.843 89.003 202.855 89.2053 202.878 89.4064V91.9721C202.641 93.7724 202.002 95.4605 201.4 97.1535C200.663 99.228 199.703 101.182 198.102 102.76C196.938 103.907 195.555 104.679 194.035 105.242C181.336 109.95 168.582 114.506 155.847 119.118C151.031 120.863 146.211 122.599 141.39 124.331C139.85 124.885 138.476 123.907 138.604 122.367C138.644 121.882 138.877 121.484 139.199 121.132H139.202Z" fill="#5C5B5D"/>
<path d="M115.541 9.78282e-05C116.562 0.228023 117.828 0.504703 119.092 0.79479C125.217 2.20013 131.342 3.60912 137.468 5.01568C138.825 5.32649 139.417 6.22356 139.115 7.55699C138.377 10.815 137.635 14.0718 136.885 17.3273C136.596 18.5864 135.618 19.1653 134.304 18.8667C132.861 18.5389 131.416 18.2159 129.981 17.86C129.555 17.7539 129.39 17.8112 129.289 18.2805C128.841 20.3586 128.353 22.4282 127.859 24.4954C127.774 24.8464 127.801 25.0085 128.182 25.1572C133.633 27.2683 138.654 30.1314 143.201 33.805C143.525 34.0658 143.668 33.9391 143.897 33.727C145.938 31.839 147.987 29.9607 150.034 28.0788C151.291 26.9234 152.251 26.9733 153.422 28.2458C155.112 30.0826 156.81 31.9121 158.502 33.7477C159.46 34.7874 159.423 35.8746 158.389 36.8302C156.302 38.7572 154.213 40.683 152.115 42.599C151.857 42.833 151.762 42.9757 151.996 43.3242C156.125 49.4746 158.66 56.2551 159.961 63.5194C160.341 65.6366 160.63 67.7635 160.68 69.9172C160.699 70.7046 160.332 71.2811 159.648 71.6431C158.334 72.3378 156.885 71.4408 156.792 69.9111C156.391 63.3244 154.729 57.0607 151.938 51.0896C148.909 44.6101 144.441 39.3313 138.659 35.125C132.59 30.7115 125.956 27.5669 118.573 26.1031C109.001 24.2053 99.8016 25.4534 90.9737 29.5451C84.9261 32.3485 79.6304 36.2366 74.8411 40.8353C73.8904 41.7483 72.9774 42.7026 72.0511 43.6424C71.2272 44.4773 70.014 44.537 69.2134 43.7752C68.4225 43.0232 68.3981 41.8555 69.2061 40.995C74.1271 35.7503 79.6389 31.2491 85.9782 27.8009C86.4005 27.5706 86.4933 27.3951 86.3029 26.9319C85.274 24.4223 84.2854 21.8968 83.2833 19.3762C82.7463 18.0269 83.1674 17.0311 84.5063 16.4973C86.8594 15.56 89.2138 14.6251 91.5693 13.6939C93.0657 13.1016 93.9871 13.5245 94.5876 15.0432C95.5921 17.5845 96.61 20.1197 97.6108 22.6635C97.7219 22.9462 97.8134 23.1035 98.1686 23.0133C103.882 21.5677 109.668 21.2642 115.511 21.9724C115.878 22.0162 116.05 21.9651 116.137 21.575C116.588 19.5176 117.052 17.4638 117.543 15.4162C117.623 15.0798 117.539 15.0176 117.243 14.953C115.718 14.6166 114.199 14.2582 112.677 13.9072C111.421 13.6171 110.803 12.6603 111.089 11.4122C111.838 8.13594 112.594 4.86089 113.355 1.58826C113.593 0.541269 114.284 -0.00843415 115.541 9.78282e-05ZM117.095 4.32215C116.688 4.20392 116.675 4.43672 116.623 4.66709C116.208 6.48196 115.791 8.29805 115.357 10.108C115.273 10.4603 115.386 10.5541 115.716 10.6285C121.486 11.9424 127.254 13.271 133.021 14.5995C133.345 14.6739 133.529 14.6617 133.616 14.2534C133.998 12.4726 134.409 10.698 134.837 8.92698C134.934 8.53085 134.9 8.38215 134.45 8.28221C130.258 7.34247 126.073 6.36861 121.884 5.40815C120.265 5.0364 118.643 4.67196 117.095 4.32093V4.32215ZM93.8102 23.63C93.7784 23.5496 93.7552 23.4923 93.7333 23.4362C93.04 21.6896 92.3419 19.9454 91.6596 18.1951C91.5583 17.9343 91.4424 17.9233 91.2068 18.0196C90.084 18.4779 88.9562 18.9265 87.8224 19.3579C87.5514 19.4615 87.5539 19.6017 87.6405 19.8199C88.3289 21.5458 89.0173 23.2729 89.6959 25.0024C89.7911 25.2438 89.9168 25.3023 90.156 25.206C91.3008 24.7453 92.4493 24.2955 93.5941 23.8348C93.6881 23.797 93.859 23.7946 93.8114 23.6312L93.8102 23.63ZM154.539 35.2262C154.374 35.0263 154.314 34.9446 154.247 34.8715C153.435 33.9915 152.618 33.1188 151.816 32.2315C151.616 32.0108 151.481 32.0291 151.275 32.2217C149.937 33.4625 148.59 34.6948 147.243 35.9258C147.041 36.1086 146.928 36.239 147.183 36.5035C148.014 37.364 148.818 38.2502 149.623 39.135C149.786 39.3142 149.889 39.3727 150.099 39.1777C151.478 37.8918 152.869 36.6181 154.262 35.3456C154.331 35.281 154.446 35.2652 154.54 35.2274L154.539 35.2262ZM123.996 22.9548C124.174 23.0376 124.259 22.8621 124.309 22.6391C124.724 20.8279 125.138 19.0167 125.553 17.2054C125.607 16.969 125.555 16.852 125.282 16.7935C124.116 16.5412 122.956 16.2633 121.795 15.9854C121.53 15.922 121.38 15.978 121.315 16.2657C120.907 18.0781 120.488 19.8881 120.074 21.6993C120.031 21.8846 120.014 22.037 120.283 22.0967C121.488 22.3624 122.687 22.6501 123.994 22.9535L123.996 22.9548Z" fill="#5C5B5E"/>
<path d="M96.4111 130.338C95.5995 129.308 95.5385 128.695 96.189 127.564C97.9404 124.518 100.418 122.135 103.176 120.024C108.013 116.321 113.401 113.607 119.025 111.334C122.427 109.958 125.886 108.738 129.49 107.983C130.59 107.753 131.703 107.664 132.814 107.89C135.027 108.343 136.198 110.133 135.758 112.361C135.531 113.509 135.094 114.572 134.396 115.516C132.102 118.613 129.8 121.704 127.503 124.797C127.419 124.911 127.351 125.034 127.275 125.153C124.806 128.423 122.331 131.689 119.87 134.965C113.573 143.353 107.214 151.696 101.008 160.152C98.8582 163.081 96.7236 166.018 94.2191 168.663C93.1463 169.795 91.9587 170.704 90.4392 171.222C86.0869 172.705 81.7614 174.266 77.4287 175.801C76.96 175.967 76.4925 176.077 76.0007 175.94C74.8021 175.608 74.2383 174.353 74.7875 173.174C76.1471 170.254 77.5251 167.345 78.8969 164.431C82.5889 156.589 86.2822 148.748 89.9754 140.907C90.4355 139.93 91.2215 139.459 92.1467 139.6C93.0108 139.732 93.6528 140.418 93.7748 141.33C93.8371 141.795 93.6711 142.202 93.4795 142.61C89.9046 150.191 86.3286 157.772 82.7586 165.355C81.9579 167.056 81.1756 168.766 80.3847 170.473C80.3701 170.518 80.3554 170.561 80.3408 170.607L80.4897 170.591C83.6203 169.479 86.7508 168.368 89.8814 167.256C90.4819 167.043 90.8737 166.562 91.2875 166.122C93.8383 163.41 95.9962 160.39 98.2016 157.403C107.009 145.47 116.006 133.679 124.894 121.806C126.997 118.997 129.082 116.173 131.177 113.357C131.458 112.979 131.653 112.565 131.828 112.128C132.023 111.643 131.841 111.565 131.403 111.613C129.432 111.822 127.553 112.41 125.69 113.034C119.027 115.261 112.65 118.09 106.861 122.118C104.214 123.96 101.795 126.051 99.9957 128.774C99.8395 129.011 99.6931 129.255 99.5539 129.501C98.7801 130.87 97.7659 131.143 96.4136 130.341L96.4111 130.338Z" fill="#5C5B5D"/>
<path d="M70.1581 71.2894C70.1337 65.9288 71.1492 60.7585 73.3656 55.8831C78.482 44.6282 86.9083 37.0518 98.8168 33.4769C102.824 32.2739 106.943 32.024 111.112 32.2873C118.956 32.7821 126.279 34.8773 132.868 39.253C135.245 40.8327 137.426 42.6475 139.263 44.8476C139.835 45.5326 139.998 46.2919 139.562 47.1037C139.169 47.835 138.528 48.1665 137.701 48.1251C137.189 48.0995 136.752 47.8849 136.418 47.5059C132.235 42.7731 126.933 39.8381 120.985 37.9683C116.453 36.5435 111.789 35.9292 107.053 36.0962C99.6735 36.357 93.1744 39.0385 87.4807 43.6519C81.2415 48.7077 77.0027 55.103 75.0121 62.9146C73.6402 68.2971 73.6695 73.7051 74.8778 79.1144C75.161 80.3857 74.7375 81.3595 73.7196 81.7191C72.593 82.1164 71.4409 81.4753 71.1565 80.2638C70.5328 77.6116 70.1789 74.924 70.1606 72.1974C70.1581 71.8951 70.1606 71.5929 70.1606 71.2906L70.1581 71.2894Z" fill="#5C5B5E"/>
<path d="M52.4193 92.8718C55.4083 94.2978 58.296 95.6776 61.185 97.0549C65.3005 99.016 69.4185 100.972 73.5328 102.936C74.5385 103.416 74.9949 104.307 74.7435 105.248C74.4897 106.193 73.6744 106.769 72.6943 106.705C72.3599 106.683 72.0657 106.546 71.774 106.407C63.488 102.459 55.2045 98.5053 46.9161 94.5611C46.0812 94.1638 45.6053 93.5726 45.6431 92.6182C45.6797 91.6834 46.2131 91.1629 47.0406 90.8302C51.006 89.2347 54.9726 87.6453 58.866 85.878C60.4502 85.1589 62.1443 85.1637 63.8335 85.3429C67.0775 85.6866 70.1544 86.7543 73.2899 87.5722C79.0165 89.0653 84.7565 90.5035 90.4892 91.9723C92.1381 92.3952 93.7809 92.8389 95.4225 93.2874C96.6711 93.6287 97.2923 94.6318 96.9725 95.747C96.6662 96.8148 95.6104 97.3364 94.3912 97.0207C88.7415 95.5569 83.1064 94.0297 77.4372 92.6499C73.5169 91.6956 69.6736 90.4621 65.7338 89.5943C64.1471 89.2445 62.5348 88.9068 60.9128 89.2981C59.8082 89.5638 58.8294 90.1854 57.7822 90.6205C56.0259 91.3506 54.2745 92.0941 52.4218 92.8742L52.4193 92.8718Z" fill="#5C5B5E"/>
<path d="M146.302 58.1452C146.299 58.7241 145.862 59.3092 145.11 59.6834C136.18 64.1151 127.25 68.5469 118.319 72.9774C115.524 74.3645 112.73 75.7527 109.932 77.1337C108.706 77.7382 107.623 77.3628 107.06 76.1415C104.172 69.8742 101.292 63.6032 98.3981 57.3383C98.0319 56.546 98.0307 55.805 98.586 55.1175C99.0926 54.4923 99.7699 54.2899 100.549 54.4642C101.211 54.6117 101.629 55.0432 101.909 55.6538C104.454 61.1874 107.016 66.7149 109.545 72.2558C109.782 72.7738 109.961 72.8031 110.443 72.563C120.344 67.6242 130.253 62.7037 140.161 57.7807C141.268 57.231 142.372 56.6704 143.491 56.1462C144.847 55.5124 146.288 56.4046 146.3 58.1452H146.302Z" fill="#5C5B5E"/>
<path d="M23.5227 102.885C22.4218 102.868 21.6553 102.196 21.4991 101.231C21.3441 100.278 21.8396 99.4223 22.8062 99.1078C25.5585 98.2119 28.3205 97.3429 31.0788 96.4641C32.6606 95.9595 34.2423 95.4525 35.8241 94.9491C37.0532 94.5578 38.1394 95.0466 38.4799 96.1411C38.829 97.2637 38.2578 98.2509 37.0056 98.6507C32.724 100.017 28.4401 101.379 24.1561 102.738C23.9071 102.817 23.6472 102.857 23.5227 102.886V102.885Z" fill="#5C5B5E"/>
<path d="M49.6684 170.981C49.6732 170.041 50.1676 169.405 51.1647 169.087C54.7701 167.938 58.3779 166.794 61.9857 165.649C62.6997 165.422 63.41 165.184 64.1277 164.97C65.281 164.625 66.3197 165.139 66.6626 166.209C67.0032 167.272 66.4478 168.301 65.2908 168.673C60.9544 170.063 56.6167 171.449 52.2741 172.82C50.8852 173.258 49.661 172.373 49.6684 170.98V170.981Z" fill="#5C5B5E"/>
<path d="M61.3558 67.8307C62.3578 67.8307 63.0962 68.445 63.2744 69.4274C63.4465 70.3756 62.9083 71.2837 61.9282 71.5993C58.711 72.6366 55.4876 73.6543 52.2655 74.6782C51.0499 75.0646 49.8416 75.4704 48.6162 75.8251C47.7277 76.0823 46.8221 75.652 46.4059 74.8476C45.9909 74.0444 46.1813 73.0693 46.8721 72.4733C47.0906 72.2843 47.3432 72.1673 47.6178 72.0796C51.9396 70.7084 56.2614 69.3347 60.5796 67.955C60.8359 67.8733 61.0885 67.8246 61.3546 67.8294L61.3558 67.8307Z" fill="#5C5B5E"/>
<path d="M41.8034 73.9438C42.7432 73.9536 43.5109 74.602 43.683 75.532C43.8526 76.4437 43.3315 77.3627 42.4002 77.6991C40.9906 78.2098 39.5687 78.6876 38.1529 79.1776C37.5402 79.3897 36.9312 79.6152 36.3124 79.8053C35.2542 80.132 34.1826 79.5969 33.8555 78.5986C33.5187 77.5724 34.0227 76.5083 35.0626 76.1402C37.0666 75.4309 39.0805 74.7495 41.087 74.0462C41.325 73.9634 41.5581 73.9353 41.8034 73.9438Z" fill="#5C5B5E"/>
<path d="M18.9592 103.155C18.9373 103.706 18.5601 104.352 17.7509 104.645C15.6944 105.388 13.6318 106.118 11.5557 106.806C10.5036 107.154 9.4198 106.561 9.11101 105.562C8.79246 104.531 9.29653 103.506 10.3584 103.126C12.3612 102.408 14.3665 101.697 16.3852 101.025C17.7082 100.583 18.958 101.498 18.9592 103.155Z" fill="#5C5B5E"/>
<path d="M80.4872 170.59L80.3383 170.606C80.3529 170.561 80.3675 170.517 80.3822 170.472C80.4176 170.511 80.4518 170.55 80.4872 170.589V170.59Z" fill="white"/>
</g>
<defs>
<clipPath id="clip0_2767_2071">
<rect width="203" height="176" fill="white"/>
</clipPath>
</defs>
</svg>
