<svg width="134" height="161" viewBox="0 0 134 161" fill="none" xmlns="http://www.w3.org/2000/svg">
<g clip-path="url(#clip0_2767_2088)">
<path d="M15.2052 149.278C13.9883 149.827 13.1912 149.592 12.4634 148.474C8.46427 142.328 4.464 136.183 0.464875 130.038C-0.310265 128.848 -0.117634 127.883 1.06238 127.101C4.75121 124.653 8.45043 122.218 12.0643 119.66C12.8913 119.074 13.6469 118.381 14.6735 118.139C16.4418 117.722 17.9793 118.224 19.3266 119.355C19.6807 119.652 19.8964 119.618 20.2529 119.39C25.0202 116.35 29.7852 113.31 34.3795 110.008C36.4178 108.543 38.6636 107.48 41.1666 107.034C42.5889 106.781 43.9823 106.84 45.3745 107.255C55.7582 110.352 66.0899 113.615 76.4182 116.892C78.6064 117.586 80.7841 118.316 82.9608 119.046C83.9804 119.389 84.9505 119.849 85.8329 120.472C87.8965 121.925 88.8285 123.889 88.509 126.412C88.2645 128.346 87.7096 130.191 86.7845 131.904C84.9886 135.231 81.7911 136.611 78.1415 135.621C71.9704 133.945 65.8096 132.229 59.6408 130.543C59.2521 130.438 59.1621 130.308 59.2902 129.914C59.5612 129.079 59.7965 128.23 60.0007 127.375C60.0976 126.97 60.2314 126.873 60.6524 126.992C65.7969 128.433 70.9461 129.857 76.0952 131.279C77.2395 131.595 78.3837 131.922 79.543 132.177C81.0598 132.511 82.354 132.057 83.2157 130.763C84.2169 129.258 84.6691 127.529 84.9021 125.756C85.0347 124.744 84.526 123.992 83.7048 123.434C82.9354 122.912 82.0691 122.598 81.1959 122.312C68.9563 118.291 56.6475 114.487 44.3156 110.761C42.785 110.298 41.3593 110.655 39.9405 111.174C38.6371 111.65 37.427 112.317 36.3082 113.129C31.8557 116.366 27.2153 119.318 22.5598 122.247C22.1088 122.531 22.1307 122.699 22.4029 123.096C26.5024 129.086 30.4612 135.167 34.4511 141.229C35.0313 142.111 35.022 142.119 35.9356 141.625C36.6438 141.243 37.3832 140.907 38.0476 140.458C39.824 139.258 41.7341 139.138 43.7239 139.696C47.5396 140.766 51.3484 141.862 55.1572 142.96C62.5164 145.08 69.8757 147.201 77.2291 149.341C77.9731 149.558 78.6317 149.405 79.2869 149.112C80.6053 148.525 81.7957 147.713 82.9896 146.916C95.7863 138.364 108.58 129.808 121.374 121.255C122.011 120.83 122.673 120.439 123.298 119.998C124.248 119.328 125.065 118.556 125.011 117.259C124.983 116.611 124.731 116.024 124.395 115.488C123.631 114.268 122.775 113.114 121.777 112.073C121.631 111.921 121.472 111.781 121.309 111.646C120.203 110.733 119.466 110.645 118.204 111.325C116.617 112.18 115.118 113.182 113.603 114.157C108.447 117.477 103.344 120.878 98.2444 124.285C97.2905 124.922 96.2154 124.763 95.5972 123.898C94.9881 123.046 95.1934 121.91 96.1289 121.288C102.638 116.956 109.106 112.561 115.773 108.471C116.642 107.938 117.564 107.518 118.576 107.324C120.49 106.955 122.151 107.53 123.596 108.752C125.463 110.334 126.914 112.272 127.981 114.452C129.478 117.513 128.636 120.663 125.784 122.714C123.763 124.168 121.643 125.485 119.571 126.87C107.987 134.614 96.4057 142.36 84.8213 150.104C83.6586 150.882 82.4821 151.634 81.2248 152.258C79.4703 153.128 77.7182 153.321 75.7815 152.745C68.4961 150.578 61.1819 148.505 53.8757 146.403C50.1961 145.345 46.5119 144.305 42.8323 143.247C41.7826 142.946 40.8206 142.996 39.8747 143.637C39.133 144.14 38.3187 144.543 37.5066 144.929C37.0752 145.135 37.1087 145.311 37.3555 145.626C37.6151 145.958 37.8365 146.318 38.073 146.667C38.8216 147.772 38.817 149.045 38.0695 150.162C37.5585 150.926 36.8711 151.511 36.1155 152.006C31.5766 154.973 27.0988 158.035 22.4941 160.901C22.471 160.914 22.4699 160.964 22.4595 160.996H21.3071C20.7327 160.735 20.3428 160.288 19.9945 159.774C19.2655 158.7 18.4996 157.65 17.7556 156.585C17.0404 155.56 17.1454 154.696 18.0762 153.85C19.2539 153.284 20.0498 153.487 20.8031 154.549C21.2137 155.126 21.6428 155.692 22.0211 156.29C22.238 156.634 22.4064 156.646 22.7363 156.427C24.6038 155.187 26.492 153.977 28.3618 152.741C30.392 151.401 32.4094 150.04 34.4372 148.696C34.7302 148.502 34.7763 148.345 34.5641 148.025C29.8095 140.865 25.0744 133.692 20.3186 126.532C19.4293 125.192 18.5653 123.831 17.5145 122.608C16.5294 121.461 15.8719 121.412 14.6792 122.28C11.4875 124.606 8.18513 126.767 4.88963 128.941C4.45708 129.226 4.42132 129.406 4.70392 129.838C8.32239 135.362 11.919 140.9 15.5213 146.434C16.2664 147.58 16.1811 148.343 15.2064 149.275L15.2052 149.278Z" fill="#5C5B5E"/>
<path d="M134 51.4519C133.965 51.4531 133.931 51.4565 133.897 51.46C133.896 50.153 133.894 48.846 133.893 47.5391C133.927 47.554 133.964 47.5563 134 47.5448V51.4531V51.4519Z" fill="#B3B0B1"/>
<path d="M133.893 47.5375C133.894 48.8445 133.896 50.1514 133.897 51.4584C133.321 63.977 128.709 74.7975 120.04 83.8519C113.097 91.1047 104.654 95.7769 94.8403 97.9525C89.727 99.0857 84.5513 99.3607 79.3399 98.828C68.0115 97.6694 58.1965 93.1583 49.9734 85.3315C42.3142 78.0431 37.4823 69.1577 35.4649 58.771C34.7901 55.2999 34.4994 51.7932 34.6078 48.2646C34.9458 37.3245 38.4616 27.5038 45.2522 18.9027C51.4198 11.0908 59.2704 5.61094 68.7324 2.45856C72.9749 1.04575 77.334 0.225439 81.806 0.0471114C95.9131 -0.517785 108.176 3.99678 118.448 13.6253C126.501 21.1749 131.385 30.5043 133.276 41.3731C133.63 43.4095 133.844 45.4666 133.893 47.5364V47.5375ZM84.2941 95.4122C109.217 95.4662 130.117 75.3371 130.276 49.8512C130.437 24.1029 109.663 3.99333 84.9942 3.62977C59.2808 3.25126 38.292 23.9557 38.2482 49.4945C38.2044 74.8078 58.8805 95.4122 84.2929 95.4122H84.2941Z" fill="#5C5B5D"/>
<path d="M15.2052 149.278C16.1799 148.345 16.2653 147.582 15.5201 146.438C11.9178 140.903 8.32126 135.365 4.70279 129.842C4.42019 129.409 4.45595 129.23 4.8885 128.944C8.184 126.771 11.4876 124.609 14.6781 122.284C15.8708 121.415 16.5283 121.465 17.5134 122.612C18.5642 123.835 19.4281 125.197 20.3175 126.535C25.0721 133.695 29.8083 140.868 34.563 148.029C34.7752 148.349 34.7291 148.505 34.4361 148.7C32.4083 150.045 30.3908 151.404 28.3607 152.745C26.4898 153.98 24.6027 155.19 22.7352 156.431C22.4064 156.65 22.238 156.638 22.02 156.294C21.6417 155.696 21.2126 155.13 20.8019 154.552C20.0487 153.491 19.2528 153.288 18.0751 153.854C17.4845 152.66 16.6632 151.607 15.9873 150.464C15.7462 150.057 15.4671 149.673 15.2041 149.278H15.2052Z" fill="#DBD9DB"/>
<path d="M84.294 95.4125C58.8817 95.4125 38.2055 74.8082 38.2493 49.4949C38.2932 23.9549 59.2819 3.25047 84.9953 3.63014C109.664 3.9937 130.438 24.1033 130.278 49.8515C130.118 75.3374 109.218 95.4666 84.2952 95.4125H84.294ZM82.1474 73.2458C82.1474 74.2226 82.1347 75.2005 82.1509 76.1773C82.1682 77.1736 82.9179 77.9031 83.9122 77.9226C85.0622 77.9445 85.7959 77.1736 85.8086 75.8805C85.8247 74.195 85.812 72.5084 85.8132 70.8229C85.8132 69.9876 85.8143 69.9945 86.6437 69.8599C88.7234 69.5228 90.5794 68.6956 92.0927 67.2195C95.7043 63.699 96.2614 59.2902 94.2982 54.7043C92.8633 51.3518 90.1456 49.4351 86.7106 48.4663C85.2353 48.0498 83.7438 47.7035 82.3816 46.9649C80.3907 45.8846 78.6731 44.5098 77.5462 42.5044C76.8622 41.2883 76.6222 39.9871 77.0017 38.6284C77.4343 37.0775 78.4205 35.8867 79.6363 34.8778C82.0863 32.846 84.9135 32.617 87.8871 33.2394C89.9519 33.672 91.8505 34.5303 93.6384 35.6417C94.8772 36.4114 96.3133 35.7556 96.4886 34.3301C96.5844 33.557 96.2303 32.9725 95.5728 32.5526C92.7248 30.7325 89.6162 29.6844 86.2492 29.4083C85.9054 29.3795 85.7936 29.2817 85.8039 28.9331C85.8293 28.0714 85.812 27.2097 85.812 26.3468C85.812 25.3505 85.8362 24.3541 85.8051 23.3589C85.767 22.1532 85.0138 21.4169 83.9019 21.4376C82.8395 21.4583 82.1474 22.2407 82.1462 23.4257C82.1462 25.3608 82.1382 27.296 82.1532 29.2299C82.1555 29.5624 82.0817 29.7396 81.731 29.8271C79.5313 30.3781 77.6996 31.5425 76.1228 33.1578C72.5135 36.8566 72.164 41.6611 75.3188 45.7442C77.8068 48.9645 81.1635 50.8732 85.0945 51.7913C88.8387 52.6645 91.0281 54.8942 91.6602 58.5746C92.2161 61.8179 90.1422 65.1256 86.984 66.0909C85.4002 66.5752 83.8003 66.4188 82.2201 66.2151C79.1449 65.8193 76.1874 64.9714 73.3509 63.7047C72.2148 63.1974 71.0359 63.8221 70.7787 65.0174C70.6034 65.8331 71.0474 66.6581 71.916 67.0527C75.0431 68.4724 78.3282 69.3491 81.7229 69.8231C82.0782 69.8726 82.1612 69.9865 82.1543 70.3167C82.1347 71.2934 82.1474 72.2702 82.1474 73.2481V73.2458Z" fill="#EE0033"/>
<path d="M82.1475 73.2465C82.1475 72.2698 82.1348 71.2918 82.1544 70.3151C82.1613 69.9837 82.0783 69.871 81.723 69.8215C78.3283 69.3475 75.0432 68.4708 71.9161 67.0511C71.0475 66.6565 70.6034 65.8327 70.7788 65.0159C71.036 63.8216 72.2148 63.1958 73.351 63.7031C76.1874 64.9698 79.1461 65.8178 82.2201 66.2135C83.8004 66.4172 85.4003 66.5725 86.984 66.0893C90.1423 65.124 92.2162 61.8163 91.6602 58.573C91.0293 54.8926 88.8388 52.6629 85.0946 51.7897C81.1636 50.8727 77.8069 48.9629 75.3189 45.7427C72.1652 41.6607 72.5148 36.855 76.1228 33.1562C77.6985 31.5409 79.5302 30.3766 81.7311 29.8255C82.0817 29.738 82.1567 29.5597 82.1532 29.2284C82.1382 27.2932 82.1452 25.3581 82.1463 23.4241C82.1463 22.2391 82.8396 21.4567 83.9019 21.436C85.0127 21.4142 85.7671 22.1516 85.8052 23.3574C85.8363 24.3525 85.8121 25.35 85.8121 26.3452C85.8121 27.2069 85.8294 28.0698 85.804 28.9315C85.7936 29.2801 85.9055 29.3791 86.2493 29.4067C89.6163 29.6828 92.7261 30.7321 95.5729 32.551C96.2303 32.9709 96.5845 33.5554 96.4887 34.3285C96.3122 35.754 94.8762 36.4098 93.6385 35.6401C91.8494 34.5287 89.9519 33.6704 87.8872 33.2379C84.9135 32.6143 82.0852 32.8444 79.6364 34.8762C78.4194 35.8852 77.4344 37.0759 77.0018 38.6268C76.6223 39.9855 76.8622 41.2868 77.5462 42.5028C78.6732 44.5082 80.3919 45.883 82.3816 46.9633C83.7427 47.702 85.2353 48.0494 86.7107 48.4647C90.1457 49.4335 92.8622 51.3502 94.2983 54.7028C96.2615 59.2887 95.7044 63.6974 92.0928 67.2179C90.5783 68.694 88.7235 69.5212 86.6438 69.8583C85.8144 69.9929 85.8132 69.986 85.8132 70.8213C85.8132 72.5068 85.8248 74.1934 85.8086 75.8789C85.7959 77.1732 85.0623 77.944 83.9123 77.921C82.918 77.9015 82.1671 77.1721 82.1509 76.1757C82.1348 75.1989 82.1475 74.2222 82.1475 73.2442V73.2465Z" fill="white"/>
</g>
<defs>
<clipPath id="clip0_2767_2088">
<rect width="134" height="161" fill="white"/>
</clipPath>
</defs>
</svg>
