<svg width="64" height="64" viewBox="0 0 64 64" fill="none" xmlns="http://www.w3.org/2000/svg">
    <path d="M8.45337 19.84L32 33.4666L55.3866 19.9199" stroke="#292D32" stroke-width="2.5" stroke-linecap="round"
        stroke-linejoin="round" />
    <path d="M31.9998 57.6266V33.4399" stroke="#292D32" stroke-width="2.5" stroke-linecap="round"
        stroke-linejoin="round" />
    <path
        d="M7.86925 19.1971C6.94002 20.8982 6.37329 22.775 6.37329 24.48V39.5467C6.37329 43.2267 9.01324 47.7067 12.2399 49.4934L26.4799 57.4134C27.9483 58.2249 29.8709 58.6444 31.8088 58.672V33.1619L7.86925 19.1971Z"
        fill="#EE0033" />
    <path
        d="M51.7866 14.5334L37.5466 6.61331C34.4799 4.90665 29.5199 4.90665 26.4799 6.61331L19.3599 10.5734L45.3088 25.6619L56.3088 19.4824C55.2305 17.3951 53.6014 15.5383 51.7866 14.5334Z"
        fill="#EE0033" />
    <path
        d="M7.80884 19.1619L7.86925 19.1971M31.8088 58.672C29.8709 58.6444 27.9483 58.2249 26.4799 57.4134L12.2399 49.4934C9.01324 47.7067 6.37329 43.2267 6.37329 39.5467V24.48C6.37329 22.775 6.94002 20.8982 7.86925 19.1971M31.8088 58.672C33.8831 58.7015 35.9749 58.282 37.5466 57.4134L51.7866 49.4934C55.0133 47.7067 57.6532 43.2267 57.6532 39.5467V24.48C57.6532 22.8697 57.1478 21.1063 56.3088 19.4824M31.8088 58.672V33.1619L7.86925 19.1971M7.86925 19.1971C8.94557 17.2268 10.5082 15.4923 12.2399 14.5334L19.3599 10.5734M19.3599 10.5734L26.4799 6.61331C29.5199 4.90665 34.4799 4.90665 37.5466 6.61331L51.7866 14.5334C53.6014 15.5383 55.2305 17.3951 56.3088 19.4824M19.3599 10.5734L45.3088 25.6619L56.3088 19.4824"
        stroke="#292D32" stroke-width="2.5" stroke-linecap="round" stroke-linejoin="round" />
    <path d="M45.3333 35.3067V25.5467L20.0266 10.9333" stroke="#292D32" stroke-width="2.5" stroke-linecap="round"
        stroke-linejoin="round" />
</svg>