<svg width="56" height="56" viewBox="0 0 56 56" fill="none" xmlns="http://www.w3.org/2000/svg">
<path d="M7.39746 17.3601L28.0008 29.2834L48.4641 17.43" stroke="#D9D9D9" stroke-width="3" stroke-linecap="round" stroke-linejoin="round"/>
<path d="M28.001 50.4234V29.26" stroke="#D9D9D9" stroke-width="3" stroke-linecap="round" stroke-linejoin="round"/>
<path d="M23.1704 5.78675L10.7104 12.7168C7.88711 14.2802 5.57715 18.2001 5.57715 21.4201V34.6035C5.57715 37.8235 7.88711 41.7435 10.7104 43.3068L23.1704 50.2369C25.8304 51.7069 30.1937 51.7069 32.8537 50.2369L45.3138 43.3068C48.1371 41.7435 50.4471 37.8235 50.4471 34.6035V21.4201C50.4471 18.2001 48.1371 14.2802 45.3138 12.7168L32.8537 5.78675C30.1704 4.29341 25.8304 4.29341 23.1704 5.78675Z" stroke="#D9D9D9" stroke-width="3" stroke-linecap="round" stroke-linejoin="round"/>
<path d="M39.6667 30.8934V22.3534L17.5234 9.56665" stroke="#D9D9D9" stroke-width="3" stroke-linecap="round" stroke-linejoin="round"/>
</svg>
