<svg width="64" height="64" viewBox="0 0 64 64" fill="none" xmlns="http://www.w3.org/2000/svg">
<path d="M23.9987 58.6667H39.9987C53.332 58.6667 58.6654 53.3334 58.6654 40V24C58.6654 10.6667 53.332 5.33337 39.9987 5.33337H23.9987C10.6654 5.33337 5.33203 10.6667 5.33203 24V40C5.33203 53.3334 10.6654 58.6667 23.9987 58.6667Z" stroke="#292D32" stroke-width="2.5" stroke-linecap="round" stroke-linejoin="round"/>
<path d="M41.3333 49.3333C44.2667 49.3333 46.6667 46.9333 46.6667 44V20C46.6667 17.0666 44.2667 14.6666 41.3333 14.6666C38.4 14.6666 36 17.0666 36 20V44C36 46.9333 38.3733 49.3333 41.3333 49.3333Z" fill="#EE0033" stroke="#292D32" stroke-width="2.5" stroke-linecap="round" stroke-linejoin="round"/>
<path d="M22.6654 49.3334C25.5987 49.3334 27.9987 46.9334 27.9987 44V34.6667C27.9987 31.7334 25.5987 29.3334 22.6654 29.3334C19.732 29.3334 17.332 31.7334 17.332 34.6667V44C17.332 46.9334 19.7054 49.3334 22.6654 49.3334Z" fill="#EE0033" stroke="#292D32" stroke-width="2.5" stroke-linecap="round" stroke-linejoin="round"/>
</svg>
