<svg width="115" height="85" viewBox="0 0 115 85" fill="none" xmlns="http://www.w3.org/2000/svg">
<path d="M80.8711 32.0134V11.4033H92.4475C98.3104 11.4033 103.595 14.9391 105.831 20.3586L110.052 30.5846C110.332 31.2654 109.832 32.0134 109.096 32.0134H80.8711Z" fill="#EE0033"/>
<path fill-rule="evenodd" clip-rule="evenodd" d="M78.8029 9.33496H92.4476C99.1481 9.33496 105.187 13.3758 107.743 19.5696L111.964 29.7956C112.807 31.838 111.305 34.0818 109.096 34.0818H78.8029V9.33496ZM82.9396 13.4717V29.945H107.55L103.919 21.1477C102.002 16.5024 97.473 13.4717 92.4476 13.4717H82.9396Z" fill="#1C1F35"/>
<path fill-rule="evenodd" clip-rule="evenodd" d="M0.942627 45.7539C0.942627 44.6116 1.86868 43.6855 3.01102 43.6855H80.8712C82.0135 43.6855 82.9396 44.6116 82.9396 45.7539C82.9396 46.8963 82.0135 47.8223 80.8712 47.8223H3.01102C1.86868 47.8223 0.942627 46.8963 0.942627 45.7539Z" fill="#1C1F35"/>
<path fill-rule="evenodd" clip-rule="evenodd" d="M87.7413 56.9825C81.2952 56.9825 76.0696 62.2081 76.0696 68.6541C76.0696 75.1002 81.2952 80.3258 87.7413 80.3258C94.1874 80.3258 99.4129 75.1002 99.4129 68.6541C99.4129 62.2081 94.1874 56.9825 87.7413 56.9825ZM71.9329 68.6541C71.9329 59.9234 79.0105 52.8457 87.7413 52.8457C96.472 52.8457 103.55 59.9234 103.55 68.6541C103.55 77.3849 96.472 84.4626 87.7413 84.4626C79.0105 84.4626 71.9329 77.3849 71.9329 68.6541Z" fill="#1C1F35"/>
<path d="M28.2012 82.3941C35.7896 82.3941 41.9413 76.2425 41.9413 68.6541C41.9413 61.0657 35.7896 54.9141 28.2012 54.9141C20.6128 54.9141 14.4612 61.0657 14.4612 68.6541C14.4612 76.2425 20.6128 82.3941 28.2012 82.3941Z" fill="#EE0033"/>
<path fill-rule="evenodd" clip-rule="evenodd" d="M28.2011 56.9825C21.7551 56.9825 16.5295 62.2081 16.5295 68.6541C16.5295 75.1002 21.7551 80.3258 28.2011 80.3258C34.6472 80.3258 39.8728 75.1002 39.8728 68.6541C39.8728 62.2081 34.6472 56.9825 28.2011 56.9825ZM12.3927 68.6541C12.3927 59.9234 19.4704 52.8457 28.2011 52.8457C36.9319 52.8457 44.0096 59.9234 44.0096 68.6541C44.0096 77.3849 36.9319 84.4626 28.2011 84.4626C19.4704 84.4626 12.3927 77.3849 12.3927 68.6541Z" fill="#1C1F35"/>
<path fill-rule="evenodd" clip-rule="evenodd" d="M39.8727 66.3623C39.8727 65.22 40.7987 64.2939 41.9411 64.2939H74.0012C75.1435 64.2939 76.0695 65.22 76.0695 66.3623C76.0695 67.5047 75.1435 68.4307 74.0012 68.4307H41.9411C40.7987 68.4307 39.8727 67.5047 39.8727 66.3623Z" fill="#1C1F35"/>
<path fill-rule="evenodd" clip-rule="evenodd" d="M6.90378 4.31159C6.43953 4.31159 5.98174 4.50088 5.63463 4.8582C5.28554 5.21755 5.07917 5.71739 5.07917 6.25071V62.3559C5.07917 62.8892 5.28554 63.389 5.63463 63.7484C5.98173 64.1057 6.43953 64.295 6.90378 64.295H14.3463C15.4886 64.295 16.4147 65.221 16.4147 66.3634C16.4147 67.5057 15.4886 68.4318 14.3463 68.4318H6.90378C5.30306 68.4318 3.78045 67.7766 2.6674 66.6308C1.55632 65.4871 0.942383 63.9482 0.942383 62.3559V6.25071C0.942383 4.65831 1.55632 3.1195 2.6674 1.97574C3.78045 0.829955 5.30306 0.174805 6.90378 0.174805H80.871C82.0133 0.174805 82.9394 1.10086 82.9394 2.2432V55.9438C82.9394 57.0862 82.0133 58.0122 80.871 58.0122C79.7286 58.0122 78.8026 57.0862 78.8026 55.9438V4.31159H6.90378Z" fill="#1C1F35"/>
<path fill-rule="evenodd" clip-rule="evenodd" d="M78.803 32.0137C78.803 30.8714 79.729 29.9453 80.8714 29.9453H112.931C114.074 29.9453 115 30.8714 115 32.0137V62.5471C115 64.1414 114.334 65.6487 113.184 66.7437C112.038 67.8355 110.504 68.4322 108.924 68.4322H101.195C100.053 68.4322 99.1268 67.5061 99.1268 66.3638C99.1268 65.2215 100.053 64.2954 101.195 64.2954H108.924C109.47 64.2954 109.974 64.0879 110.331 63.7481C110.685 63.4116 110.863 62.9773 110.863 62.5471V34.0821H80.8714C79.729 34.0821 78.803 33.156 78.803 32.0137Z" fill="#1C1F35"/>
<path fill-rule="evenodd" clip-rule="evenodd" d="M12.1712 9.33496C13.3135 9.33496 14.2396 10.261 14.2396 11.4034L14.2396 30.584C14.2396 31.7263 13.3135 32.6524 12.1712 32.6524C11.0288 32.6524 10.1028 31.7263 10.1028 30.584L10.1028 11.4034C10.1028 10.261 11.0288 9.33496 12.1712 9.33496Z" fill="#1C1F35"/>
<path fill-rule="evenodd" clip-rule="evenodd" d="M74.64 36.5938C74.64 37.7361 73.714 38.6622 72.5716 38.6622L53.391 38.6622C52.2487 38.6622 51.3226 37.7361 51.3226 36.5938C51.3226 35.4514 52.2487 34.5254 53.391 34.5254L72.5716 34.5254C73.714 34.5254 74.64 35.4514 74.64 36.5938Z" fill="#1C1F35"/>
<path fill-rule="evenodd" clip-rule="evenodd" d="M62.3296 75.3037C62.3296 76.4461 61.4035 77.3721 60.2612 77.3721L53.3912 77.3721C52.2488 77.3721 51.3228 76.4461 51.3228 75.3037C51.3228 74.1614 52.2488 73.2354 53.3912 73.2354L60.2612 73.2354C61.4035 73.2354 62.3296 74.1614 62.3296 75.3037Z" fill="#1C1F35"/>
</svg>
