<svg width="64" height="64" viewBox="0 0 64 64" fill="none" xmlns="http://www.w3.org/2000/svg">
<path d="M32 37.3333H34.6667C37.6 37.3333 40 34.9333 40 32V5.33334H16C12 5.33334 8.50669 7.54664 6.69336 10.8" stroke="#292D32" stroke-width="2.5" stroke-linecap="round" stroke-linejoin="round"/>
<path d="M5.33301 45.3333C5.33301 49.76 8.90634 53.3333 13.333 53.3333H15.9997C15.9997 50.4 18.3997 48 21.333 48C24.2663 48 26.6663 50.4 26.6663 53.3333H37.333C37.333 50.4 39.733 48 42.6663 48C45.5997 48 47.9997 50.4 47.9997 53.3333H50.6663C55.093 53.3333 58.6663 49.76 58.6663 45.3333V37.3333H50.6663C49.1997 37.3333 47.9997 36.1333 47.9997 34.6667V26.6667C47.9997 25.2 49.1997 24 50.6663 24H54.1063L49.5464 16.0267C48.5864 14.3734 46.8264 13.3333 44.9064 13.3333H39.9997V32C39.9997 34.9333 37.5997 37.3333 34.6663 37.3333H31.9997L5.33301 45.3333Z" fill="#EE0033" stroke="#292D32" stroke-width="2.5" stroke-linecap="round" stroke-linejoin="round"/>
<path d="M21.3333 58.6667C24.2789 58.6667 26.6667 56.2789 26.6667 53.3333C26.6667 50.3878 24.2789 48 21.3333 48C18.3878 48 16 50.3878 16 53.3333C16 56.2789 18.3878 58.6667 21.3333 58.6667Z" stroke="#292D32" stroke-width="2.5" stroke-linecap="round" stroke-linejoin="round"/>
<path d="M42.6663 58.6667C45.6119 58.6667 47.9997 56.2789 47.9997 53.3333C47.9997 50.3878 45.6119 48 42.6663 48C39.7208 48 37.333 50.3878 37.333 53.3333C37.333 56.2789 39.7208 58.6667 42.6663 58.6667Z" stroke="#292D32" stroke-width="2.5" stroke-linecap="round" stroke-linejoin="round"/>
<path d="M58.6667 32V37.3333H50.6667C49.2 37.3333 48 36.1333 48 34.6667V26.6667C48 25.2 49.2 24 50.6667 24H54.1066L58.6667 32Z" stroke="#292D32" stroke-width="2.5" stroke-linecap="round" stroke-linejoin="round"/>
<path d="M5.33301 21.3333H21.333" stroke="#292D32" stroke-width="2.5" stroke-linecap="round" stroke-linejoin="round"/>
<path d="M5.33301 29.3333H15.9997" stroke="#292D32" stroke-width="2.5" stroke-linecap="round" stroke-linejoin="round"/>
<path d="M5.33301 37.3333H10.6663" stroke="#292D32" stroke-width="2.5" stroke-linecap="round" stroke-linejoin="round"/>
</svg>
