<svg width="106" height="87" viewBox="0 0 106 87" fill="none" xmlns="http://www.w3.org/2000/svg">
<path fill-rule="evenodd" clip-rule="evenodd" d="M2.7644 84.2559C2.7644 83.2328 3.59385 82.4033 4.61701 82.4033H101.658C102.682 82.4033 103.511 83.2328 103.511 84.2559C103.511 85.2791 102.682 86.1085 101.658 86.1085H4.61701C3.59385 86.1085 2.7644 85.2791 2.7644 84.2559Z" fill="#141414"/>
<path fill-rule="evenodd" clip-rule="evenodd" d="M10.1963 2.45834C11.222 1.4498 12.6066 0.888672 14.0439 0.888672H57.2967C58.734 0.888672 60.1186 1.4498 61.1443 2.45834C62.171 3.46793 62.7537 4.84393 62.7537 6.2854V84.2561C62.7537 85.2792 61.9242 86.1087 60.9011 86.1087C59.8779 86.1087 59.0484 85.2792 59.0484 84.2561V6.2854C59.0484 5.84696 58.8716 5.42004 58.5465 5.10032C58.2202 4.77956 57.7712 4.59389 57.2967 4.59389H14.0439C13.5693 4.59389 13.1203 4.77956 12.7941 5.10032C12.469 5.42004 12.2921 5.84696 12.2921 6.2854V84.2561C12.2921 85.2792 11.4627 86.1087 10.4395 86.1087C9.41636 86.1087 8.58691 85.2792 8.58691 84.2561V6.2854C8.58691 4.84392 9.16957 3.46792 10.1963 2.45834Z" fill="#141414"/>
<path d="M60.9016 26.0312H90.2787C93.3482 26.0312 95.8365 28.5196 95.8365 31.5891V82.3153H60.9016V26.0312Z" fill="#EE0033"/>
<path fill-rule="evenodd" clip-rule="evenodd" d="M59.0488 26.0303C59.0488 25.0072 59.8783 24.1777 60.9014 24.1777H90.2785C94.3712 24.1777 97.689 27.4955 97.689 31.5882V82.3144C97.689 83.3375 96.8595 84.167 95.8363 84.167H60.9014C59.8783 84.167 59.0488 83.3375 59.0488 82.3144V26.0303ZM62.754 27.883V80.4618H93.9837V31.5882C93.9837 29.5418 92.3248 27.883 90.2785 27.883H62.754Z" fill="#141414"/>
<path fill-rule="evenodd" clip-rule="evenodd" d="M24.1138 20.2091C24.1138 19.1859 24.9432 18.3564 25.9664 18.3564H39.5522C40.5753 18.3564 41.4048 19.1859 41.4048 20.2091C41.4048 21.2322 40.5753 22.0617 39.5522 22.0617H25.9664C24.9432 22.0617 24.1138 21.2322 24.1138 20.2091Z" fill="#141414"/>
<path fill-rule="evenodd" clip-rule="evenodd" d="M2.67634 78.3457C1.65317 78.3457 0.82373 77.5163 0.82373 76.4931L0.823729 49.3215C0.823729 48.2983 1.65317 47.4689 2.67634 47.4689C3.69951 47.4689 4.52895 48.2983 4.52895 49.3215L4.52895 76.4931C4.52895 77.5163 3.69951 78.3457 2.67634 78.3457Z" fill="#141414"/>
<path fill-rule="evenodd" clip-rule="evenodd" d="M103.599 58.9355C102.576 58.9355 101.747 58.1061 101.747 57.0829L101.747 29.9113C101.747 28.8882 102.576 28.0587 103.599 28.0587C104.622 28.0587 105.452 28.8882 105.452 29.9113L105.452 57.0829C105.452 58.1061 104.622 58.9355 103.599 58.9355Z" fill="#141414"/>
<path fill-rule="evenodd" clip-rule="evenodd" d="M64.8706 18.2686C64.8706 17.2455 65.7 16.416 66.7232 16.416L80.309 16.416C81.3322 16.416 82.1616 17.2455 82.1616 18.2686C82.1616 19.2918 81.3322 20.1212 80.309 20.1212L66.7232 20.1212C65.7 20.1212 64.8706 19.2918 64.8706 18.2686Z" fill="#141414"/>
<path fill-rule="evenodd" clip-rule="evenodd" d="M29.936 49.3214C29.936 48.2982 30.7655 47.4688 31.7886 47.4688H45.3744C46.3976 47.4688 47.2271 48.2982 47.2271 49.3214C47.2271 50.3445 46.3976 51.174 45.3744 51.174H31.7886C30.7655 51.174 29.936 50.3445 29.936 49.3214Z" fill="#141414"/>
<path fill-rule="evenodd" clip-rule="evenodd" d="M24.1138 66.7882C24.1138 65.765 24.9432 64.9355 25.9664 64.9355H39.5522C40.5753 64.9355 41.4048 65.765 41.4048 66.7882C41.4048 67.8113 40.5753 68.6408 39.5522 68.6408H25.9664C24.9432 68.6408 24.1138 67.8113 24.1138 66.7882Z" fill="#141414"/>
<path fill-rule="evenodd" clip-rule="evenodd" d="M72.6348 66.7882C72.6348 65.765 73.4642 64.9355 74.4874 64.9355H82.2507C83.2739 64.9355 84.1033 65.765 84.1033 66.7882C84.1033 67.8113 83.2739 68.6408 82.2507 68.6408H74.4874C73.4642 68.6408 72.6348 67.8113 72.6348 66.7882Z" fill="#141414"/>
<path fill-rule="evenodd" clip-rule="evenodd" d="M72.6348 49.3214C72.6348 48.2982 73.4642 47.4688 74.4874 47.4688H82.2507C83.2739 47.4688 84.1033 48.2982 84.1033 49.3214C84.1033 50.3445 83.2739 51.174 82.2507 51.174H74.4874C73.4642 51.174 72.6348 50.3445 72.6348 49.3214Z" fill="#141414"/>
</svg>
