<svg width="65" height="64" viewBox="0 0 65 64" fill="none" xmlns="http://www.w3.org/2000/svg">
<path d="M43.9592 0.9375H17.8959C11.5276 0.9375 6.36523 6.1 6.36523 12.4681C6.36523 18.8364 11.5277 23.9989 17.896 23.9989H25.5911" stroke="black" stroke-width="1.875" stroke-miterlimit="10" stroke-linecap="round" stroke-linejoin="round"/>
<path d="M30.9238 23.9989H41.6221V28.4902C41.6221 29.0471 42.2953 29.3259 42.6891 28.9322L47.6225 23.9989H51.867C58.2352 23.9989 63.3976 18.8364 63.3976 12.4683C63.3975 6.1 58.235 0.9375 51.8667 0.9375H47.96" stroke="black" stroke-width="1.875" stroke-miterlimit="10" stroke-linecap="round" stroke-linejoin="round"/>
<path d="M37.4785 16.7238V9.43696L42.405 16.571C42.4964 16.703 42.5941 16.6382 42.5941 16.4778L42.5259 9.42346" stroke="#EE0033" stroke-width="1.875" stroke-miterlimit="10" stroke-linecap="round" stroke-linejoin="round"/>
<path d="M23.2852 9.42334V16.7238" stroke="#EE0033" stroke-width="1.875" stroke-miterlimit="10" stroke-linecap="round" stroke-linejoin="round"/>
<path d="M34.0234 9.42334V16.7238" stroke="#EE0033" stroke-width="1.875" stroke-miterlimit="10" stroke-linecap="round" stroke-linejoin="round"/>
<path d="M14.6191 9.42334V16.7238" stroke="#EE0033" stroke-width="1.875" stroke-miterlimit="10" stroke-linecap="round" stroke-linejoin="round"/>
<path d="M19.6719 9.42334V16.7238" stroke="#EE0033" stroke-width="1.875" stroke-miterlimit="10" stroke-linecap="round" stroke-linejoin="round"/>
<path d="M14.6191 12.9484H19.6711" stroke="#EE0033" stroke-width="1.875" stroke-miterlimit="10" stroke-linecap="round" stroke-linejoin="round"/>
<path d="M51.2771 10.0467C50.6944 9.65309 49.9922 9.42334 49.2362 9.42334C47.2202 9.42334 45.5859 11.0576 45.5859 13.0736C45.5859 15.0896 47.2202 16.7238 49.2362 16.7238C51.2522 16.7238 52.3872 15.0896 52.3872 13.0736H50.2033" stroke="#EE0033" stroke-width="1.875" stroke-miterlimit="10" stroke-linecap="round" stroke-linejoin="round"/>
<path d="M27.625 13.2395L30.6917 16.7239" stroke="#EE0033" stroke-width="1.875" stroke-miterlimit="10" stroke-linecap="round" stroke-linejoin="round"/>
<path d="M26.7461 9.42334V16.7238" stroke="#EE0033" stroke-width="1.875" stroke-miterlimit="10" stroke-linecap="round" stroke-linejoin="round"/>
<path d="M26.748 9.42334H28.688C29.7739 9.42334 30.6927 10.2728 30.6927 11.3206C30.6927 12.3683 29.7739 13.2178 28.688 13.2178C28.1495 13.2178 26.7615 13.2262 26.7615 13.2262" stroke="#EE0033" stroke-width="1.875" stroke-miterlimit="10" stroke-linecap="round" stroke-linejoin="round"/>
<path d="M55.5176 9.42322V13.6666" stroke="#EE0033" stroke-width="1.875" stroke-miterlimit="10" stroke-linecap="round" stroke-linejoin="round"/>
<path d="M55.5 16.5V16" stroke="#EE0033" stroke-width="1.875" stroke-miterlimit="10" stroke-linecap="round" stroke-linejoin="round"/>
<path d="M15.4102 49.6527L18.6008 58.3753C18.7219 58.7066 18.7065 59.0725 18.558 59.3925L17.2113 62.2927C16.7123 63.3675 15.1629 63.3022 14.7559 62.1895L10.7949 51.3607" stroke="black" stroke-width="1.875" stroke-miterlimit="10" stroke-linecap="round" stroke-linejoin="round"/>
<path d="M36.0133 51.2922L18.4863 48.5278L14.293 37.0638L25.8996 23.6427L36.0133 51.2922Z" fill="#EE0033" stroke="black" stroke-width="1.875" stroke-miterlimit="10" stroke-linecap="round" stroke-linejoin="round"/>
<path d="M4.17401 40.7647L3.36151 41.0618C1.71088 41.6656 0.862258 43.4932 1.46601 45.1438L3.47288 50.6305C4.07663 52.2811 5.90426 53.1297 7.55488 52.526L18.4856 48.5277L14.2923 37.0636L7.65226 39.4923" stroke="black" stroke-width="1.875" stroke-miterlimit="10" stroke-linecap="round" stroke-linejoin="round"/>
<path d="M39.0932 53.0253C37.9014 53.4613 36.5817 52.8485 36.1459 51.6567L25.7655 23.2783C25.3295 22.0864 25.9422 20.7668 27.1341 20.3309C28.326 19.8949 29.6456 20.5078 30.0815 21.6995L40.4619 50.0779C40.8979 51.2698 40.2851 52.5894 39.0932 53.0253Z" stroke="black" stroke-width="1.875" stroke-miterlimit="10" stroke-linecap="round" stroke-linejoin="round"/>
<path d="M7.17578 45.1319L11.0154 43.7275" stroke="black" stroke-width="1.875" stroke-miterlimit="10" stroke-linecap="round" stroke-linejoin="round"/>
</svg>
