<svg width="166" height="139" viewBox="0 0 166 139" fill="none" xmlns="http://www.w3.org/2000/svg">
<g clip-path="url(#clip0_2765_1687)">
<path d="M1.18189 138.876C0.368997 138.63 -0.0534645 138.088 0.00601566 137.37C0.0639707 136.662 0.623694 136.119 1.40914 136.03C1.65926 136.002 1.91548 136.015 2.17018 136.015C8.84568 136.015 15.5212 136.002 22.1952 136.033C22.9181 136.036 23.0386 135.82 23.037 135.172C23.0157 128.858 23.0279 122.543 23.0294 116.229C23.0294 114.624 23.5159 114.148 25.1555 114.148C43.303 114.148 61.4505 114.148 79.5981 114.148C81.1781 114.148 81.6159 114.582 81.6159 116.148C81.6159 122.513 81.6296 128.877 81.596 135.242C81.593 135.936 81.8034 136.039 82.4349 136.03C85.023 135.994 87.6127 135.993 90.2008 136.032C90.817 136.041 90.9298 135.856 90.9298 135.292C90.9131 125.208 90.9176 115.125 90.9176 105.041C90.9176 103.663 91.3752 103.212 92.7783 103.212C111.002 103.212 129.226 103.212 147.45 103.212C148.973 103.212 149.446 103.668 149.446 105.161C149.448 111.897 149.446 118.632 149.446 125.368C149.446 128.66 149.464 131.951 149.431 135.242C149.425 135.855 149.565 136.033 150.209 136.03C154.802 136.002 159.396 136.03 163.99 136.002C164.839 135.997 165.51 136.212 166.001 136.903V137.952C165.744 138.43 165.413 138.817 164.821 138.886C164.696 138.874 164.571 138.853 164.446 138.853C159.077 138.853 153.71 138.855 148.342 138.856C129.554 138.856 110.766 138.856 91.9776 138.856C88.1282 138.861 84.2803 138.865 80.4308 138.87C77.4385 138.864 74.4462 138.85 71.4524 138.852C55.7008 138.852 39.9508 138.856 24.1992 138.859C19.7672 138.856 15.3351 138.85 10.9031 138.852C7.66218 138.853 4.4228 138.867 1.18189 138.876ZM120.161 114.139C128.71 114.139 137.262 114.133 145.812 114.153C146.374 114.153 146.532 114.03 146.522 113.463C146.486 111.218 146.49 108.971 146.519 106.727C146.527 106.203 146.381 106.065 145.847 106.065C128.721 106.079 111.594 106.079 94.4681 106.065C93.9313 106.065 93.791 106.209 93.7986 106.73C93.8276 108.95 93.8383 111.172 93.794 113.391C93.7818 114.025 93.9618 114.157 94.5856 114.156C103.111 114.133 111.635 114.141 120.161 114.141V114.139ZM52.3531 125.073C60.8817 125.073 69.4087 125.068 77.9372 125.083C78.4985 125.083 78.7196 124.993 78.7074 124.368C78.6632 122.147 78.6769 119.926 78.6998 117.704C78.7044 117.213 78.6159 117.014 78.047 117.014C60.9152 117.029 43.7819 117.029 26.6501 117.017C26.1575 117.017 26.0065 117.132 26.0141 117.635C26.0431 119.881 26.0538 122.128 26.0095 124.374C25.9973 124.993 26.2078 125.085 26.769 125.083C35.2976 125.067 43.8246 125.071 52.3531 125.071V125.073ZM120.164 125.073C128.713 125.073 137.263 125.067 145.813 125.086C146.378 125.086 146.532 124.962 146.522 124.395C146.486 122.15 146.49 119.903 146.521 117.659C146.527 117.152 146.367 117.033 145.88 117.039C143.953 117.063 142.025 117.05 140.096 117.05C124.949 117.05 109.803 117.054 94.6573 117.033C93.9542 117.033 93.7788 117.215 93.794 117.891C93.8398 120.037 93.8398 122.183 93.794 124.327C93.7803 124.972 93.977 125.088 94.5917 125.086C103.116 125.065 111.641 125.073 120.165 125.073H120.164ZM120.164 136.006C128.713 136.006 137.263 136 145.813 136.02C146.378 136.02 146.532 135.894 146.522 135.328C146.486 133.084 146.49 130.836 146.521 128.592C146.527 128.084 146.365 127.968 145.88 127.974C143.85 127.998 141.822 127.985 139.792 127.985C124.748 127.985 109.703 127.989 94.6588 127.968C93.9542 127.968 93.7818 128.151 93.7956 128.828C93.8413 130.973 93.8413 133.12 93.7956 135.263C93.7818 135.909 93.9801 136.023 94.5932 136.021C103.117 136 111.643 136.008 120.167 136.008L120.164 136.006ZM52.344 136.006C60.8939 136.006 69.4453 136.002 77.9952 136.018C78.5458 136.018 78.7318 135.915 78.7211 135.331C78.683 133.111 78.683 130.889 78.7211 128.67C78.7303 128.085 78.5336 127.973 77.986 127.974C60.8847 127.986 43.7834 127.988 26.6821 127.974C26.1468 127.974 26.0019 128.12 26.0095 128.642C26.0385 130.836 26.0568 133.034 26.0019 135.227C25.9851 135.921 26.2078 136.024 26.8438 136.023C35.3433 136.002 43.8429 136.009 52.3425 136.009L52.344 136.006Z" fill="#050403"/>
<path d="M91.9761 138.856C110.764 138.856 129.552 138.856 148.34 138.856C148.328 138.904 148.325 138.952 148.333 139H91.9822C91.9899 138.952 91.9883 138.904 91.9746 138.856H91.9761Z" fill="#373535"/>
<path d="M24.1992 138.859C39.9508 138.856 55.7008 138.852 71.4524 138.852C74.4447 138.852 77.437 138.864 80.4309 138.87C80.4202 138.912 80.4125 138.955 80.4095 139H24.2099C24.2145 138.952 24.2114 138.906 24.1992 138.859Z" fill="#373535"/>
<path d="M24.1992 138.859C24.2114 138.905 24.2144 138.952 24.2099 139H1.21239C1.19409 138.961 1.18494 138.919 1.18188 138.875C4.42279 138.866 7.66217 138.853 10.9031 138.851C15.3351 138.848 19.7671 138.856 24.1992 138.859Z" fill="#686564"/>
<path d="M148.334 139.001C148.327 138.953 148.328 138.905 148.342 138.857C153.71 138.855 159.077 138.854 164.446 138.854C164.571 138.854 164.696 138.876 164.821 138.887C164.839 138.935 164.827 138.972 164.783 139.001H148.334Z" fill="#686564"/>
<path d="M80.408 139C80.411 138.957 80.4186 138.913 80.4293 138.87C84.2787 138.865 88.1267 138.861 91.9761 138.856C91.9883 138.904 91.9913 138.952 91.9837 139H80.4095H80.408Z" fill="#686564"/>
<path d="M164.781 139C164.825 138.971 164.838 138.934 164.819 138.886C165.411 138.817 165.742 138.43 166 137.951C166 138.65 165.594 139 164.781 139Z" fill="#F1F1F0"/>
<path d="M28.2102 2.33752C27.9128 1.37589 28.079 0.727813 28.7379 0.282257C29.4013 -0.1663 30.0937 -0.0837893 30.8761 0.555291C35.7489 4.53679 40.637 8.50179 45.4838 12.5148C47.8585 14.48 48.4792 17.0139 47.68 19.9347C47.8676 20.1253 48.1086 20.0307 48.316 20.0307C53.8721 20.0367 59.4281 20.0277 64.9842 20.0472C65.6568 20.0502 66.2272 19.8192 66.7671 19.5072C68.765 18.352 70.8925 18.0385 73.2107 18.052C86.4535 18.127 99.6977 18.0835 112.94 18.103C113.578 18.103 113.788 18.001 113.781 17.3079C113.755 15.0366 114.766 13.2319 116.593 11.8712C121.016 8.5768 125.445 5.29289 129.872 2.00447C130.357 1.64443 130.842 1.28288 131.329 0.924338C132.188 0.292758 132.976 0.240252 133.606 0.769818C134.265 1.32339 134.33 1.99547 133.826 2.9991C128.735 6.78108 123.644 10.5646 118.551 14.345C116.759 15.6757 116.399 17.6904 117.645 19.5432C120.995 24.5238 124.345 29.5044 127.708 34.4776C131.729 40.4213 135.764 46.3561 139.793 52.2938C140.187 52.8729 140.588 53.4474 140.986 54.025C142.336 55.9858 144.331 56.4148 146.377 55.1547C151.392 52.0658 156.405 48.9709 161.408 45.8625C162.05 45.4634 162.68 45.2804 163.407 45.552L163.404 45.5505C163.457 45.5925 163.512 45.636 163.566 45.678C164.557 46.7791 164.418 47.7122 163.14 48.5013C158.17 51.5707 153.201 54.6446 148.224 57.705C144.506 59.9913 140.713 59.1992 138.256 55.6392C138.059 55.3527 137.858 55.0692 137.751 54.9161C135.451 57.0779 133.162 59.2292 130.792 61.4555C131.913 62.15 132.923 62.7801 133.938 63.4027C136.165 64.7634 137.527 66.6911 138.04 69.2354C138.918 73.5965 135.706 78.1976 131.241 78.9492C128.88 79.3467 126.72 78.9072 124.728 77.608C123.764 76.9794 122.788 76.3658 121.711 75.6787C121.949 79.4502 120.63 82.4266 117.368 84.3273C114.109 86.2266 110.817 85.982 107.551 84.0093C107.543 84.9409 107.564 85.817 107.375 86.6871C106.099 92.5724 99.292 95.4737 94.0364 92.3443C92.7035 91.5507 91.4086 90.6956 90.0085 89.8135C89.9872 90.9312 90.0146 91.9363 89.7325 92.9324C88.1952 98.3466 81.9833 100.877 77.0327 98.0796C76.5523 97.808 76.0399 97.2485 75.6189 97.3115C75.1919 97.376 74.8655 98.0526 74.4873 98.4531C71.4172 101.703 66.9089 102.183 63.4834 99.5993C61.757 98.2971 60.784 96.5359 60.4393 94.4221C57.5278 95.8413 54.6773 95.8593 51.9855 94.0546C49.3333 92.2753 48.1833 89.731 48.5402 86.5866C48.6164 85.9115 48.2184 86.1276 47.9225 86.1291C43.8077 86.1381 40.6248 83.7243 39.6883 79.8553C39.4946 79.0542 39.3528 78.2246 39.5267 77.4115C39.6593 76.7934 39.487 76.6494 38.8831 76.6914C35.7748 76.9104 32.4958 74.7606 31.4633 71.4917C30.6321 68.8619 31.1781 66.4781 32.935 64.3673C33.2507 63.9878 33.2843 63.8183 32.9137 63.4462C29.9351 60.4488 26.9794 57.4304 24.0389 54.3986C23.6455 53.9935 23.403 53.9125 22.8692 54.2395C20.6547 55.5942 18.3014 55.7307 16.0198 54.4961C11.0829 51.8227 6.20709 49.0399 1.28396 46.3411C0.320079 45.813 0.0562313 44.2603 1.20161 43.5582C1.88487 43.2882 2.50559 43.3992 3.14005 43.7607C5.23863 44.9549 7.35552 46.1205 9.4663 47.2937C12.1063 48.7609 14.7372 50.243 17.3924 51.6817C19.1677 52.6433 21.0726 52.1993 22.2164 50.6016C25.7532 45.6645 29.2854 40.7228 32.813 35.7797C36.5771 30.5036 40.338 25.2244 44.0944 19.9407C45.313 18.226 45.0339 16.2248 43.3974 14.8821C39.7585 11.8982 36.1043 8.93235 32.479 5.93347C31.0469 4.74832 29.5279 3.66218 28.2102 2.34502V2.33752ZM69.8402 84.7399C70.1147 84.8104 70.3084 84.8704 70.5051 84.9094C74.591 85.715 77.2325 88.8909 77.0022 93.0179C76.9366 94.1806 77.3423 94.6411 78.2406 95.1527C79.6682 95.9658 81.1292 96.3243 82.7306 95.9013C85.0137 95.2997 86.4184 93.792 86.7676 91.5357C87.1154 89.2825 86.2552 87.4342 84.2527 86.1741C83.8699 85.9325 83.484 85.697 83.1012 85.4525C81.9802 84.7354 80.8501 84.0303 79.7429 83.2922C79.0078 82.8016 78.7927 81.9795 79.1526 81.2654C79.4943 80.5874 80.2446 80.2378 81.0011 80.4599C81.3077 80.5499 81.5898 80.7389 81.8643 80.9114C86.4153 83.7888 90.9633 86.6691 95.5097 89.5555C96.3561 90.0926 97.2728 90.4241 98.2748 90.4736C100.961 90.6056 103.315 89.0289 104.122 86.5911C104.924 84.1638 103.986 81.621 101.744 80.1358C98.287 77.8465 94.831 75.5557 91.3735 73.2664C89.9872 72.3483 88.5947 71.4392 87.2115 70.5181C86.5678 70.089 86.3559 69.4605 86.5511 68.7494C86.7326 68.0908 87.2328 67.7082 87.9298 67.6347C88.5856 67.5657 89.0706 67.9558 89.5724 68.2888C96.2219 72.6859 102.87 77.0859 109.526 81.4755C111.116 82.5241 112.855 82.7716 114.656 82.1341C116.996 81.3045 118.335 79.6212 118.538 77.1864C118.733 74.8371 117.67 73.0789 115.672 71.8023C109.179 67.6527 102.699 63.4852 96.2174 59.3192C95.923 59.1302 95.6027 58.9681 95.3831 58.6786C94.9134 58.056 94.9454 57.2489 95.467 56.6834C96.0542 56.0488 96.8594 55.9843 97.7318 56.5393C101.395 58.8751 105.057 61.2139 108.714 63.5617C114.638 67.3662 120.56 71.1737 126.476 74.9887C127.739 75.8033 129.101 76.1693 130.589 75.8708C132.856 75.4162 134.544 73.724 134.924 71.5922C135.302 69.4665 134.346 67.3857 132.39 66.1555C130.751 65.1234 129.09 64.1228 127.443 63.1027C115.648 55.7982 103.855 48.4893 92.0583 41.1879C90.1077 39.9803 87.9771 39.3802 85.6619 39.3847C79.7231 39.3967 73.7842 39.3892 67.8453 39.3892C66.0945 39.3892 66.1219 39.3892 66.0853 41.1159C66.0487 42.9086 66.2805 44.7118 65.9328 46.4911C65.2602 49.937 61.8653 53.2614 56.9025 52.7319C53.1522 52.3313 49.9631 48.8164 49.9601 44.9534C49.957 40.1618 49.9433 35.3687 49.9662 30.5771C49.9769 28.4678 51.0155 26.9316 52.8899 25.946C53.5564 25.5949 54.261 25.3174 54.9442 24.9994C56.1826 24.4233 57.418 23.8412 58.6549 23.2621C58.6411 23.2156 58.6289 23.1676 58.6152 23.1211C58.5268 23.1211 58.4383 23.1211 58.3483 23.1211C54.3891 23.1211 50.4298 23.1301 46.4706 23.1091C46.0283 23.1061 45.7766 23.2682 45.5418 23.5952C38.9944 32.7298 32.4455 41.863 25.8782 50.9841C25.5808 51.3967 25.6983 51.5977 25.9865 51.8903C29.0185 54.9746 32.0459 58.062 35.0611 61.1629C35.3875 61.499 35.5872 61.574 36.0478 61.2949C40.6766 58.4941 46.6201 61.1314 47.5046 66.3731C47.6053 66.9701 47.8295 66.9146 48.2748 66.7886C51.5279 65.878 54.3769 66.5756 56.7607 68.9504C57.8527 70.0395 58.4932 71.3927 58.8592 72.9454C59.1353 72.6604 59.3427 72.4443 59.5517 72.2313C61.391 70.3621 63.6177 69.492 66.2607 69.7995C69.3964 70.164 71.6307 71.8428 72.8569 74.6481C74.0694 77.4205 73.6683 80.1088 71.8046 82.5301C71.2265 83.2802 70.5433 83.9538 69.8387 84.7399H69.8402ZM92.8209 21.1739C86.9568 21.1739 81.0911 21.2699 75.2315 21.1349C72.1996 21.0644 69.3445 21.3299 66.764 23.0176C66.703 23.0566 66.6176 23.0566 66.5505 23.0866C62.4891 24.9679 58.4276 26.8506 54.3677 28.7333C53.5853 29.0964 53.1446 29.7085 53.143 30.5546C53.1324 35.4227 53.1019 40.2893 53.1568 45.1574C53.1857 47.7902 55.8319 49.9535 58.4597 49.625C61.1896 49.2844 62.9115 47.3927 62.9298 44.6788C62.9451 42.4571 62.9283 40.2353 62.9344 38.0135C62.939 36.8584 63.5444 36.2568 64.7157 36.2568C71.7969 36.2538 78.8797 36.2478 85.9608 36.2658C88.7869 36.2733 91.3918 37.0714 93.7802 38.5491C105.045 45.5205 116.308 52.4918 127.563 59.4767C127.984 59.7377 128.213 59.7077 128.559 59.3537C130.81 57.0524 133.078 54.7676 135.372 52.5068C135.738 52.1453 135.73 51.9293 135.461 51.5317C128.736 41.6095 122.021 31.6797 115.32 21.741C115.033 21.3149 114.736 21.1589 114.218 21.1604C107.085 21.1769 99.9539 21.1724 92.8209 21.1724V21.1739ZM56.1186 92.2888C57.8176 92.2963 59.0301 91.7998 59.9802 90.7721C63.029 87.4747 66.0594 84.1608 69.0944 80.8514C69.9454 79.9228 70.374 78.8111 70.3328 77.578C70.2627 75.5092 68.8839 73.7645 66.8967 73.0984C65.0055 72.4653 63.0701 73.0309 61.6411 74.6271C59.8674 76.6089 58.0921 78.5876 56.3153 80.5664C55.176 81.834 54.0169 83.0837 52.896 84.3678C51.5554 85.904 51.2214 87.6383 52.0831 89.5015C52.9143 91.2987 54.4104 92.1808 56.1186 92.2903V92.2888ZM47.4818 83.0072C48.9306 82.9757 50.1263 82.5811 51.0338 81.6315C52.3012 80.3068 53.5411 78.9522 54.7094 77.5435C56.4602 75.4312 56.1049 72.4038 53.9773 70.6681C51.8436 68.9279 48.679 69.1844 46.8946 71.2727C45.8026 72.5508 44.7121 73.8335 43.6933 75.1687C42.4808 76.7574 42.2963 78.5081 43.2099 80.2948C44.1082 82.0515 45.6318 82.9022 47.4818 83.0072ZM73.8818 92.6369C73.8711 89.428 70.7339 87.1537 67.641 88.1063C66.3949 88.4904 65.5713 89.3875 64.7585 90.3191C62.8109 92.5499 63.3248 95.8863 65.8871 97.409C67.4961 98.3661 69.2057 98.4411 70.7659 97.448C72.5061 96.3409 73.8559 94.8707 73.8833 92.6369H73.8818ZM38.4835 73.583C39.9323 73.583 40.9923 73.2019 41.8006 72.3378C42.5174 71.5697 43.2099 70.7626 43.7955 69.8955C45.0187 68.0893 44.5672 65.6425 42.8331 64.2608C41.1281 62.9016 38.5353 62.9827 37.0209 64.4948C36.33 65.1849 35.6818 65.932 35.1099 66.7196C34.0789 68.1358 33.963 69.684 34.7896 71.2247C35.6132 72.7609 36.9766 73.5155 38.4835 73.5815V73.583Z" fill="#090909"/>
<path d="M163.407 45.549C162.68 45.2774 162.05 45.4604 161.408 45.8595C156.405 48.9679 151.394 52.0628 146.377 55.1517C144.332 56.4118 142.336 55.9843 140.986 54.022C140.59 53.4444 140.187 52.8699 139.793 52.2908C135.764 46.3531 131.73 40.4183 127.708 34.4746C124.345 29.5029 120.995 24.5208 117.645 19.5402C116.399 17.6874 116.759 15.6712 118.551 14.342C123.644 10.5615 128.735 6.77807 133.826 2.99609C135.178 4.6373 136.296 6.44203 137.51 8.17925C142.203 14.8956 146.869 21.6299 151.551 28.3553C154.047 31.9437 156.558 35.5232 159.056 39.1101C160.427 41.0784 161.786 43.0526 163.149 45.0254C163.261 45.1874 163.427 45.3254 163.403 45.5505L163.407 45.549ZM137.844 26.5776C136.556 26.5866 135.862 27.9232 136.589 29.0739C140.098 34.6276 143.622 40.1723 147.151 45.714C147.712 46.5961 148.629 46.8076 149.432 46.293C150.192 45.807 150.363 44.9234 149.833 44.0623C149.245 43.1051 148.63 42.163 148.028 41.2134C145.136 36.6573 142.238 32.1043 139.357 27.5422C138.996 26.9691 138.541 26.6076 137.844 26.5776Z" fill="#D6D6D6"/>
<path d="M28.2102 2.33744C29.5264 3.6561 31.047 4.74074 32.4791 5.92589C36.1043 8.92627 39.7585 11.8906 43.3975 14.8745C45.034 16.2172 45.3131 18.2184 44.0945 19.9332C40.3381 25.2153 36.5786 30.4945 32.8131 35.7721C29.2854 40.7168 25.7532 45.6569 22.2165 50.594C21.0726 52.1917 19.1677 52.6373 17.3925 51.6741C14.7372 50.2355 12.1064 48.7533 9.46635 47.2861C7.35557 46.1129 5.23869 44.9473 3.1401 43.7531C2.50565 43.3916 1.88492 43.2806 1.20166 43.5506C1.29469 42.904 1.76291 42.445 2.09691 41.9364C5.02669 37.4659 7.99307 33.0178 10.9427 28.5592C14.7189 22.851 18.4921 17.1398 22.2592 11.4256C24.2525 8.4012 26.2276 5.36632 28.2102 2.33594V2.33744ZM12.2162 44.2182C12.9528 44.2752 13.3371 43.7937 13.7062 43.2611C16.0061 39.9547 18.3136 36.6528 20.6166 33.3493C21.9755 31.3991 23.339 29.4534 24.6841 27.4941C25.4375 26.3975 25.0014 25.1883 23.7629 24.9408C22.9516 24.7788 22.4315 25.2228 22.0029 25.8394C19.703 29.1458 17.3925 32.4462 15.0895 35.7511C13.7032 37.7419 12.3275 39.7401 10.9366 41.7279C10.5538 42.274 10.5019 42.847 10.7856 43.4171C11.0616 43.9737 11.5466 44.2707 12.2177 44.2167L12.2162 44.2182Z" fill="#D6D6D6"/>
<path d="M120.159 114.141C111.634 114.141 103.11 114.133 94.5841 114.156C93.9619 114.157 93.7804 114.027 93.7926 113.391C93.8368 111.171 93.8261 108.95 93.7971 106.73C93.791 106.209 93.9298 106.065 94.4667 106.065C111.592 106.079 128.72 106.079 145.845 106.065C146.379 106.065 146.524 106.203 146.518 106.727C146.489 108.973 146.483 111.219 146.521 113.463C146.53 114.031 146.373 114.154 145.81 114.153C137.26 114.133 128.709 114.139 120.159 114.139V114.141Z" fill="#EE0033"/>
<path d="M52.3517 125.072C43.8231 125.072 35.2961 125.068 26.7676 125.084C26.2079 125.084 25.9959 124.994 26.0081 124.375C26.0523 122.129 26.0416 119.882 26.0126 117.636C26.0065 117.133 26.156 117.018 26.6486 117.018C43.7804 117.03 60.9138 117.031 78.0456 117.015C78.6145 117.015 78.7029 117.214 78.6983 117.705C78.6755 119.927 78.6617 122.148 78.706 124.369C78.7182 124.994 78.497 125.084 77.9358 125.084C69.4072 125.068 60.8802 125.074 52.3517 125.074V125.072Z" fill="#FBFBFB"/>
<path d="M120.162 125.074C111.638 125.074 103.113 125.066 94.5887 125.087C93.9756 125.089 93.7773 124.973 93.791 124.328C93.8383 122.183 93.8383 120.036 93.791 117.892C93.7773 117.216 93.9512 117.033 94.6543 117.034C109.8 117.055 124.946 117.051 140.093 117.051C142.02 117.051 143.95 117.064 145.877 117.04C146.364 117.034 146.524 117.153 146.518 117.66C146.487 119.906 146.483 122.151 146.519 124.396C146.529 124.963 146.373 125.089 145.81 125.087C137.26 125.068 128.71 125.074 120.161 125.074H120.162Z" fill="#EE0033"/>
<path d="M120.164 136.007C111.64 136.007 103.114 136.001 94.5901 136.021C93.977 136.021 93.7788 135.908 93.7925 135.263C93.8398 133.118 93.8382 130.971 93.7925 128.827C93.7788 128.152 93.9511 127.968 94.6557 127.968C109.7 127.989 124.745 127.984 139.789 127.984C141.819 127.984 143.849 127.998 145.877 127.974C146.362 127.968 146.525 128.085 146.518 128.592C146.487 130.838 146.483 133.083 146.519 135.328C146.529 135.893 146.374 136.021 145.81 136.019C137.26 136 128.71 136.006 120.161 136.006L120.164 136.007Z" fill="#EE0033"/>
<path d="M52.344 136.008C43.8445 136.008 35.3449 136 26.8453 136.021C26.2094 136.023 25.9852 135.919 26.0035 135.226C26.0584 133.031 26.0401 130.835 26.0111 128.64C26.005 128.12 26.1484 127.973 26.6837 127.973C43.785 127.986 60.8863 127.986 77.9876 127.973C78.5351 127.973 78.7319 128.085 78.7227 128.669C78.6861 130.889 78.6846 133.111 78.7227 135.33C78.7334 135.913 78.5458 136.018 77.9968 136.017C69.4469 136 60.8954 136.005 52.3456 136.005L52.344 136.008Z" fill="#EE0033"/>
<path d="M69.8404 84.7401C70.545 83.954 71.2283 83.2805 71.8063 82.5304C73.67 80.1091 74.0711 77.4207 72.8586 74.6484C71.6324 71.843 69.3981 70.1643 66.2624 69.7998C63.6209 69.4922 61.3927 70.3608 59.5534 72.2316C59.3444 72.4446 59.137 72.6606 58.861 72.9457C58.4949 71.3945 57.8544 70.0398 56.7624 68.9507C54.3801 66.5744 51.5296 65.8783 48.2765 66.7889C47.8312 66.9134 47.607 66.9704 47.5063 66.3733C46.6218 61.1317 40.6783 58.4958 36.0496 61.2952C35.589 61.5742 35.3892 61.4992 35.0628 61.1632C32.0476 58.0638 29.0187 54.9749 25.9883 51.8905C25.7 51.5965 25.5826 51.3954 25.88 50.9844C32.4472 41.8647 38.9961 32.7301 45.5435 23.5954C45.7768 23.2699 46.0285 23.1079 46.4723 23.1094C50.4315 23.1304 54.3908 23.1214 58.35 23.1214C58.4385 23.1214 58.527 23.1214 58.6169 23.1214C58.6307 23.1679 58.6429 23.2159 58.6566 23.2624C57.4197 23.8415 56.1843 24.4236 54.9459 24.9996C54.2627 25.3177 53.5565 25.5952 52.8916 25.9462C51.0172 26.9319 49.9786 28.4681 49.9679 30.5773C49.945 35.3689 49.9588 40.162 49.9618 44.9536C49.9649 48.8166 53.1524 52.3316 56.9042 52.7321C61.867 53.2617 65.2619 49.9373 65.9345 46.4913C66.2822 44.7121 66.0504 42.9089 66.087 41.1162C66.1221 39.3909 66.0947 39.3894 67.847 39.3894C73.7859 39.3894 79.7248 39.3969 85.6636 39.3849C87.9788 39.3804 90.1094 39.9805 92.06 41.1882C103.857 48.4896 115.649 55.7985 127.445 63.1029C129.092 64.1231 130.751 65.1237 132.392 66.1558C134.347 67.3845 135.304 69.4667 134.925 71.5925C134.546 73.7258 132.857 75.4165 130.591 75.871C129.101 76.1696 127.741 75.8035 126.478 74.9889C120.56 71.1739 114.64 67.3665 108.716 63.562C105.06 61.2142 101.398 58.8754 97.7335 56.5396C96.8627 55.9845 96.0559 56.049 95.4687 56.6836C94.9471 57.2477 94.9136 58.0563 95.3848 58.6789C95.6029 58.9684 95.9247 59.1304 96.2191 59.3194C102.701 63.4855 109.18 67.653 115.674 71.8025C117.672 73.0792 118.735 74.8389 118.539 77.1867C118.337 79.6215 116.999 81.3047 114.658 82.1343C112.858 82.7719 111.118 82.5259 109.527 81.4757C102.872 77.0862 96.2236 72.6861 89.5741 68.2891C89.0723 67.9575 88.5873 67.566 87.9315 67.635C87.2345 67.7085 86.7343 68.091 86.5528 68.7496C86.3576 69.4592 86.568 70.0893 87.2132 70.5184C88.5965 71.4395 89.9889 72.3501 91.3753 73.2667C94.8327 75.556 98.2887 77.8468 101.746 80.1361C103.988 81.6198 104.926 84.1626 104.124 86.5914C103.317 89.0292 100.962 90.6059 98.2765 90.4739C97.2745 90.4244 96.3579 90.0928 95.5114 89.5558C90.9665 86.6709 86.417 83.7905 81.8661 80.9117C81.5915 80.7376 81.3094 80.5501 81.0028 80.4601C80.2464 80.2381 79.496 80.5876 79.1544 81.2657C78.7944 81.9798 79.0095 82.8019 79.7446 83.2925C80.8518 84.0306 81.982 84.7356 83.1029 85.4527C83.4842 85.6973 83.8701 85.9328 84.2544 86.1743C86.2554 87.4345 87.1171 89.2827 86.7694 91.536C86.4201 93.7923 85.0155 95.2985 82.7323 95.9016C81.1325 96.3231 79.6699 95.9661 78.2423 95.153C77.344 94.6414 76.9399 94.1808 77.0039 93.0182C77.2342 88.8912 74.5927 85.7153 70.5069 84.9097C70.3101 84.8707 70.118 84.8107 69.8419 84.7401H69.8404Z" fill="#FEFEFE"/>
<path d="M92.821 21.1752C99.954 21.1752 107.086 21.1812 114.219 21.1632C114.734 21.1632 115.031 21.3177 115.32 21.7438C122.021 31.6825 128.736 41.6123 135.461 51.5345C135.729 51.9305 135.738 52.1481 135.372 52.5096C133.078 54.7704 130.81 57.0552 128.559 59.3565C128.213 59.7105 127.984 59.742 127.563 59.4795C116.308 52.4946 105.045 45.5217 93.7803 38.5519C91.3934 37.0742 88.787 36.2761 85.9609 36.2686C78.8797 36.2506 71.797 36.2566 64.7158 36.2596C63.5445 36.2596 62.9375 36.8612 62.9345 38.0163C62.9268 40.2381 62.9451 42.4599 62.9299 44.6816C62.9116 47.3955 61.1897 49.2872 58.4597 49.6278C55.8319 49.9563 53.1858 47.793 53.1568 45.1602C53.1019 40.2936 53.1324 35.4255 53.1431 30.5574C53.1446 29.7098 53.5854 29.0977 54.3678 28.7361C58.4277 26.8534 62.4891 24.9707 66.5505 23.0894C66.6177 23.0579 66.7046 23.0594 66.7641 23.0204C69.3446 21.3327 72.1996 21.0687 75.2316 21.1377C81.0912 21.2727 86.9568 21.1767 92.821 21.1767V21.1752Z" fill="#FEFEFE"/>
<path d="M56.1173 92.2906C54.4091 92.1796 52.913 91.299 52.0818 89.5017C51.2201 87.64 51.5556 85.9058 52.8947 84.3681C54.0141 83.0839 55.1747 81.8343 56.314 80.5666C58.0908 78.5879 59.8661 76.6091 61.6398 74.6274C63.0673 73.0312 65.0042 72.4656 66.8954 73.0987C68.8826 73.7648 70.2614 75.5095 70.3315 77.5782C70.3727 78.8114 69.9441 79.9245 69.0931 80.8517C66.0596 84.1626 63.0277 87.475 59.9789 90.7724C59.0288 91.8 57.8163 92.2966 56.1173 92.2891V92.2906Z" fill="#FDFDFD"/>
<path d="M47.4804 83.0086C45.6304 82.9036 44.1083 82.053 43.2085 80.2963C42.2949 78.5096 42.4795 76.7588 43.6919 75.1701C44.7107 73.835 45.8012 72.5523 46.8932 71.2742C48.6776 69.1874 51.8422 68.9294 53.9759 70.6696C56.1035 72.4053 56.4573 75.4327 54.708 77.545C53.5397 78.9536 52.2998 80.3083 51.0324 81.633C50.1249 82.5826 48.9292 82.9771 47.4804 83.0086Z" fill="#FDFDFD"/>
<path d="M73.8803 92.6372C73.8528 94.8695 72.5031 96.3412 70.7629 97.4483C69.2012 98.4414 67.493 98.3664 65.884 97.4093C63.3218 95.8866 62.8078 92.5502 64.7554 90.3194C65.5683 89.3878 66.3919 88.4907 67.6379 88.1066C70.7309 87.154 73.8681 89.4283 73.8788 92.6372H73.8803Z" fill="#FDFDFD"/>
<path d="M38.4807 73.583C36.9738 73.517 35.6104 72.7624 34.7868 71.2262C33.9602 69.6855 34.0761 68.1388 35.1071 66.7212C35.6805 65.9336 36.3272 65.1865 37.0181 64.4964C38.5325 62.9827 41.1252 62.9032 42.8303 64.2623C44.5644 65.644 45.0159 68.0908 43.7927 69.8971C43.2055 70.7627 42.5146 71.5713 41.7978 72.3394C40.9895 73.2035 39.9295 73.5845 38.4807 73.5845V73.583Z" fill="#FDFCFC"/>
<path d="M137.845 26.5771C138.542 26.6072 138.994 26.9687 139.357 27.5418C142.238 32.1038 145.135 36.6569 148.028 41.213C148.63 42.1626 149.245 43.1047 149.834 44.0618C150.363 44.923 150.192 45.8051 149.432 46.2926C148.629 46.8072 147.714 46.5957 147.151 45.7136C143.623 40.1719 140.099 34.6272 136.589 29.0735C135.862 27.9228 136.556 26.5861 137.845 26.5771Z" fill="#090909"/>
<path d="M12.2163 44.2187C11.5453 44.2712 11.0618 43.9757 10.7842 43.4191C10.5006 42.849 10.5524 42.276 10.9352 41.7299C12.3277 39.7421 13.7018 37.7439 15.0882 35.7531C17.3911 32.4482 19.7002 29.1478 22.0016 25.8414C22.4301 25.2248 22.9517 24.7808 23.7616 24.9428C25 25.1903 25.4362 26.3995 24.6828 27.4961C23.3376 29.4539 21.9741 31.4011 20.6152 33.3513C18.3123 36.6563 16.0048 39.9567 13.7049 43.2631C13.3342 43.7957 12.9499 44.2772 12.2148 44.2202L12.2163 44.2187Z" fill="#070707"/>
</g>
<defs>
<clipPath id="clip0_2765_1687">
<rect width="166" height="139" fill="white"/>
</clipPath>
</defs>
</svg>
