<svg width="64" height="64" viewBox="0 0 64 64" fill="none" xmlns="http://www.w3.org/2000/svg">
<path d="M48.0009 19.0934C47.8409 19.0667 47.6542 19.0667 47.4942 19.0934C43.8142 18.96 40.8809 15.9467 40.8809 12.2133C40.8809 8.40002 43.9475 5.33334 47.7609 5.33334C51.5742 5.33334 54.6409 8.42668 54.6409 12.2133C54.6142 15.9467 51.6809 18.96 48.0009 19.0934Z" stroke="#292D32" stroke-width="2.5" stroke-linecap="round" stroke-linejoin="round"/>
<path d="M45.2538 38.5067C48.9072 39.12 52.9338 38.48 55.7605 36.5867C59.5205 34.08 59.5205 29.9734 55.7605 27.4667C52.9072 25.5734 48.8272 24.9334 45.1738 25.5734" stroke="#292D32" stroke-width="2.5" stroke-linecap="round" stroke-linejoin="round"/>
<path d="M15.9193 19.0934C16.0793 19.0667 16.266 19.0667 16.426 19.0934C20.106 18.96 23.0393 15.9467 23.0393 12.2133C23.0393 8.40002 19.9726 5.33334 16.1593 5.33334C12.346 5.33334 9.2793 8.42668 9.2793 12.2133C9.30596 15.9467 12.2393 18.96 15.9193 19.0934Z" stroke="#292D32" stroke-width="2.5" stroke-linecap="round" stroke-linejoin="round"/>
<path d="M18.6665 38.5067C15.0132 39.12 10.9865 38.48 8.15984 36.5867C4.39984 34.08 4.39984 29.9734 8.15984 27.4667C11.0132 25.5734 15.0932 24.9334 18.7465 25.5734" stroke="#292D32" stroke-width="2.5" stroke-linecap="round" stroke-linejoin="round"/>
<path d="M32.0009 39.0133C31.8409 38.9867 31.6542 38.9867 31.4942 39.0133C27.8142 38.88 24.8809 35.8667 24.8809 32.1333C24.8809 28.32 27.9475 25.2533 31.7609 25.2533C35.5742 25.2533 38.6409 28.3467 38.6409 32.1333C38.6142 35.8667 35.6809 38.9067 32.0009 39.0133Z" fill="#EE0033" stroke="#292D32" stroke-width="2.5" stroke-linecap="round" stroke-linejoin="round"/>
<path d="M24.2399 47.4133C20.4799 49.92 20.4799 54.0267 24.2399 56.5333C28.5066 59.3867 35.4933 59.3867 39.7599 56.5333C43.5199 54.0267 43.5199 49.92 39.7599 47.4133C35.5199 44.5867 28.5066 44.5867 24.2399 47.4133Z" fill="#EE0033" stroke="#292D32" stroke-width="2.5" stroke-linecap="round" stroke-linejoin="round"/>
</svg>
