<svg width="64" height="64" viewBox="0 0 64 64" fill="none" xmlns="http://www.w3.org/2000/svg">
    <path
        d="M48 19.0934C47.84 19.0667 47.6533 19.0667 47.4933 19.0934C43.8133 18.96 40.88 15.9467 40.88 12.2133C40.88 8.40002 43.9467 5.33334 47.76 5.33334C51.5733 5.33334 54.64 8.42668 54.64 12.2133C54.6133 15.9467 51.68 18.96 48 19.0934Z"
        stroke="white" stroke-width="2" stroke-linecap="round" stroke-linejoin="round" />
    <path
        d="M45.2533 38.5067C48.9067 39.12 52.9334 38.48 55.76 36.5867C59.52 34.08 59.52 29.9734 55.76 27.4667C52.9067 25.5734 48.8267 24.9334 45.1733 25.5734"
        stroke="white" stroke-width="2" stroke-linecap="round" stroke-linejoin="round" />
    <path
        d="M15.92 19.0934C16.08 19.0667 16.2667 19.0667 16.4267 19.0934C20.1067 18.96 23.04 15.9467 23.04 12.2133C23.04 8.40002 19.9734 5.33334 16.16 5.33334C12.3467 5.33334 9.28003 8.42668 9.28003 12.2133C9.3067 15.9467 12.24 18.96 15.92 19.0934Z"
        stroke="white" stroke-width="2" stroke-linecap="round" stroke-linejoin="round" />
    <path
        d="M18.6667 38.5067C15.0134 39.12 10.9867 38.48 8.16003 36.5867C4.40003 34.08 4.40003 29.9734 8.16003 27.4667C11.0134 25.5734 15.0934 24.9334 18.7467 25.5734"
        stroke="white" stroke-width="2" stroke-linecap="round" stroke-linejoin="round" />
    <path
        d="M32 39.0133C31.84 38.9867 31.6533 38.9867 31.4933 39.0133C27.8133 38.88 24.88 35.8667 24.88 32.1333C24.88 28.32 27.9467 25.2533 31.76 25.2533C35.5733 25.2533 38.64 28.3467 38.64 32.1333C38.6133 35.8667 35.68 38.9067 32 39.0133Z"
        fill="#EE0033" stroke="white" stroke-width="2" stroke-linecap="round" stroke-linejoin="round" />
    <path
        d="M24.24 47.4133C20.48 49.92 20.48 54.0267 24.24 56.5333C28.5066 59.3867 35.4933 59.3867 39.76 56.5333C43.52 54.0267 43.52 49.92 39.76 47.4133C35.52 44.5867 28.5066 44.5867 24.24 47.4133Z"
        fill="#EE0033" stroke="white" stroke-width="2" stroke-linecap="round" stroke-linejoin="round" />
</svg>