<svg width="64" height="64" viewBox="0 0 64 64" fill="none" xmlns="http://www.w3.org/2000/svg">
<path d="M5.5208 12.2667C7.65413 3.04001 21.5475 3.04001 23.6541 12.2667C24.9075 17.68 21.4675 22.2667 18.4808 25.12C16.2941 27.2 12.8541 27.1733 10.6675 25.12C7.70747 22.2667 4.26747 17.68 5.5208 12.2667Z" fill="#EE0033" stroke="#292D32" stroke-width="2.5"/>
<path d="M40.1867 44.2667C42.32 35.04 56.2933 35.04 58.4267 44.2667C59.68 49.68 56.24 54.2667 53.2267 57.12C51.04 59.2 47.5733 59.1733 45.3867 57.12C42.3733 54.2667 38.9333 49.68 40.1867 44.2667Z" fill="#EE0033" stroke="#292D32" stroke-width="2.5"/>
<path d="M32.0005 13.3333H39.1472C44.0805 13.3333 46.3738 19.44 42.6672 22.6933L21.3605 41.3333C17.6538 44.56 19.9472 50.6667 24.8538 50.6667H32.0005" stroke="#292D32" stroke-width="2.5" stroke-linecap="round" stroke-linejoin="round"/>
<path d="M14.6299 14.6667H14.6607" stroke="#292D32" stroke-width="2.5" stroke-linecap="round" stroke-linejoin="round"/>
<path d="M49.2959 46.6667H49.3267" stroke="#292D32" stroke-width="2.5" stroke-linecap="round" stroke-linejoin="round"/>
</svg>
