<svg width="50" height="50" viewBox="0 0 50 50" fill="none" xmlns="http://www.w3.org/2000/svg">
    <path
        d="M41.2494 32.3105C41.2494 30.2027 40.5003 28.3997 39.002 26.9015C37.5038 25.4033 35.7008 24.6541 33.593 24.6541C31.4852 24.6541 29.6822 25.4033 28.184 26.9015C26.6857 28.3997 25.9366 30.2027 25.9366 32.3105C25.9366 34.4183 26.6857 36.2213 28.184 37.7196C29.6822 39.2178 31.4852 39.9669 33.593 39.9669C35.7008 39.9669 37.5038 39.2178 39.002 37.7196C40.5003 36.2213 41.2494 34.4183 41.2494 32.3105ZM49.9996 46.5296C49.9996 47.122 49.7831 47.6347 49.3502 48.0677C48.9172 48.5006 48.4045 48.7171 47.812 48.7171C47.1968 48.7171 46.6841 48.5006 46.2739 48.0677L40.412 42.2228C38.3726 43.6356 36.0996 44.342 33.593 44.342C31.9637 44.342 30.4057 44.0259 28.9188 43.3935C27.432 42.7612 26.1502 41.9067 25.0736 40.83C23.9969 39.7533 23.1424 38.4715 22.51 36.9847C21.8777 35.4979 21.5615 33.9398 21.5615 32.3105C21.5615 30.6813 21.8777 29.1232 22.51 27.6364C23.1424 26.1495 23.9969 24.8678 25.0736 23.7911C26.1502 22.7144 27.432 21.8599 28.9188 21.2276C30.4057 20.5952 31.9637 20.2791 33.593 20.2791C35.2223 20.2791 36.7803 20.5952 38.2672 21.2276C39.754 21.8599 41.0358 22.7144 42.1125 23.7911C43.1891 24.8678 44.0437 26.1495 44.676 27.6364C45.3083 29.1232 45.6245 30.6813 45.6245 32.3105C45.6245 34.8171 44.9181 37.0901 43.5053 39.1295L49.3672 44.9914C49.7888 45.413 49.9996 45.9257 49.9996 46.5296Z"
        fill="#D9D9D9" fill-opacity="0.8" />
    <path fill-rule="evenodd" clip-rule="evenodd"
        d="M0 5.79092C0 3.46532 1.92053 1.5625 4.26793 1.5625H38.4114C39.5433 1.5625 40.6289 2.00803 41.4293 2.80097C42.2296 3.59392 42.6793 4.6695 42.6793 5.79092V20.5091C41.4081 19.4939 39.9694 18.6796 38.4114 18.1141V10.0193H4.26793V35.3898H18.4491C18.7584 36.8928 19.2908 38.3143 20.0102 39.6182H4.26793C3.136 39.6182 2.05043 39.1727 1.25002 38.3797C0.449699 37.5868 0 36.5112 0 35.3898V5.79092ZM7.11322 5.83044C7.11322 6.61618 6.47631 7.25309 5.69057 7.25309C4.90484 7.25309 4.26793 6.61618 4.26793 5.83044C4.26793 5.04471 4.90484 4.4078 5.69057 4.4078C6.47631 4.4078 7.11322 5.04471 7.11322 5.83044ZM11.7368 5.83044C11.7368 6.61618 11.0999 7.25309 10.3142 7.25309C9.52843 7.25309 8.89152 6.61618 8.89152 5.83044C8.89152 5.04471 9.52843 4.4078 10.3142 4.4078C11.0999 4.4078 11.7368 5.04471 11.7368 5.83044Z"
        fill="#D9D9D9" fill-opacity="0.8" />
    <rect x="7.11328" y="13.655" width="17.783" height="3.55661" rx="1.7783" fill="#D9D9D9" fill-opacity="0.8" />
    <rect x="7.11328" y="20.7681" width="10.6698" height="3.55661" rx="1.7783" fill="#D9D9D9" fill-opacity="0.8" />
</svg>