<svg width="64" height="64" viewBox="0 0 64 64" fill="none" xmlns="http://www.w3.org/2000/svg">
<path d="M27.9737 5.94666L14.6671 10.9333C11.6004 12.08 9.09375 15.7067 9.09375 18.9867V38.8C9.09375 41.9467 11.1738 46.08 13.7071 47.9733L25.1737 56.5333C28.9337 59.36 35.1204 59.36 38.8804 56.5333L50.3471 47.9733C52.8804 46.08 54.9604 41.9467 54.9604 38.8V18.9867C54.9604 15.7067 52.4537 12.08 49.387 10.9333L36.0804 5.94666C33.8137 5.11999 30.187 5.11999 27.9737 5.94666Z" stroke="#292D32" stroke-width="2.5" stroke-linecap="round" stroke-linejoin="round"/>
<path d="M31.9997 41.3333C37.8907 41.3333 42.6663 36.5577 42.6663 30.6667C42.6663 24.7756 37.8907 20 31.9997 20C26.1086 20 21.333 24.7756 21.333 30.6667C21.333 36.5577 26.1086 41.3333 31.9997 41.3333Z" fill="#EE0033" stroke="#292D32" stroke-width="2.5" stroke-miterlimit="10" stroke-linecap="round" stroke-linejoin="round"/>
<path d="M32.6663 27.3333V29.8133C32.6663 30.7467 32.1864 31.6267 31.3597 32.1067L29.333 33.3333" stroke="#292D32" stroke-width="2.5" stroke-miterlimit="10" stroke-linecap="round" stroke-linejoin="round"/>
</svg>
