<svg width="64" height="64" viewBox="0 0 64 64" fill="none" xmlns="http://www.w3.org/2000/svg">
    <path
        d="M27.9733 5.94666L14.6667 10.9333C11.6 12.08 9.09335 15.7067 9.09335 18.9867V38.8C9.09335 41.9467 11.1734 46.08 13.7067 47.9733L25.1733 56.5333C28.9333 59.36 35.12 59.36 38.88 56.5333L50.3467 47.9733C52.88 46.08 54.96 41.9467 54.96 38.8V18.9867C54.96 15.7067 52.4533 12.08 49.3866 10.9333L36.08 5.94666C33.8133 5.11999 30.1866 5.11999 27.9733 5.94666Z"
        stroke="white" stroke-width="2" stroke-linecap="round" stroke-linejoin="round" />
    <path
        d="M32 41.3333C37.891 41.3333 42.6667 36.5577 42.6667 30.6667C42.6667 24.7756 37.891 20 32 20C26.109 20 21.3333 24.7756 21.3333 30.6667C21.3333 36.5577 26.109 41.3333 32 41.3333Z"
        fill="#EE0033" stroke="white" stroke-width="2" stroke-miterlimit="10" stroke-linecap="round"
        stroke-linejoin="round" />
    <path d="M32.6667 27.3333V29.8133C32.6667 30.7467 32.1867 31.6267 31.36 32.1067L29.3333 33.3333" stroke="white"
        stroke-width="2" stroke-miterlimit="10" stroke-linecap="round" stroke-linejoin="round" />
</svg>