<svg width="22" height="20" viewBox="0 0 22 20" fill="none" xmlns="http://www.w3.org/2000/svg">
    <path fill-rule="evenodd" clip-rule="evenodd"
        d="M2.63534 3.2371C1.95538 3.86848 1.5 4.89295 1.5 6.5C1.5 6.91421 1.16421 7.25 0.75 7.25C0.335786 7.25 0 6.91421 0 6.5C0 4.60705 0.544615 3.13152 1.61466 2.1379C2.67465 1.15363 4.13503 0.75 5.75 0.75H15.75C17.365 0.75 18.8254 1.15363 19.8853 2.1379C20.9554 3.13152 21.5 4.60705 21.5 6.5V13.5C21.5 15.393 20.9554 16.8685 19.8853 17.8621C18.8254 18.8464 17.365 19.25 15.75 19.25H5.75C5.33579 19.25 5 18.9142 5 18.5C5 18.0858 5.33579 17.75 5.75 17.75H15.75C17.135 17.75 18.1746 17.4036 18.8647 16.7629C19.5446 16.1315 20 15.107 20 13.5V6.5C20 4.89295 19.5446 3.86848 18.8647 3.2371C18.1746 2.59637 17.135 2.25 15.75 2.25H5.75C4.36497 2.25 3.32535 2.59637 2.63534 3.2371Z"
        fill="#292D32" />
    <path fill-rule="evenodd" clip-rule="evenodd"
        d="M16.336 6.53196C16.5945 6.85561 16.5417 7.32754 16.2181 7.58605L13.0872 10.0868C11.7838 11.1244 9.70628 11.1244 8.40289 10.0868L8.40104 10.0853L5.28105 7.58531C4.9578 7.3263 4.90573 6.85429 5.16474 6.53105C5.42375 6.2078 5.89576 6.15573 6.21901 6.41474L9.33802 8.91395C10.0946 9.51552 11.3962 9.51539 12.1525 8.91355C12.1524 8.91364 12.1527 8.91345 12.1525 8.91355L15.282 6.41401C15.6056 6.15551 16.0775 6.20832 16.336 6.53196Z"
        fill="#292D32" />
    <path fill-rule="evenodd" clip-rule="evenodd"
        d="M0 14.5C0 14.0858 0.335786 13.75 0.75 13.75H6.75C7.16421 13.75 7.5 14.0858 7.5 14.5C7.5 14.9142 7.16421 15.25 6.75 15.25H0.75C0.335786 15.25 0 14.9142 0 14.5Z"
        fill="#292D32" />
    <path fill-rule="evenodd" clip-rule="evenodd"
        d="M0 10.5C0 10.0858 0.335786 9.75 0.75 9.75H3.75C4.16421 9.75 4.5 10.0858 4.5 10.5C4.5 10.9142 4.16421 11.25 3.75 11.25H0.75C0.335786 11.25 0 10.9142 0 10.5Z"
        fill="#292D32" />
</svg>