<svg width="64" height="64" viewBox="0 0 64 64" fill="none" xmlns="http://www.w3.org/2000/svg">
    <path
        d="M23.9999 58.6666H39.9999C53.3333 58.6666 58.6666 53.3333 58.6666 40V24C58.6666 10.6666 53.3333 5.33331 39.9999 5.33331H23.9999C10.6666 5.33331 5.33325 10.6666 5.33325 24V40C5.33325 53.3333 10.6666 58.6666 23.9999 58.6666Z"
        fill="#EE0033" stroke="#292D32" stroke-width="2.5" stroke-linecap="round" stroke-linejoin="round" />
    <path
        d="M28.6933 16.7734L20.1599 21.52C18.2399 22.5867 16.6399 25.28 16.6399 27.4934V36.5333C16.6399 38.7467 18.2132 41.44 20.1599 42.5067L28.6933 47.2534C30.5066 48.2667 33.4933 48.2667 35.3333 47.2534L43.8666 42.5067C45.7866 41.44 47.3866 38.7467 47.3866 36.5333V27.4667C47.3866 25.2534 45.8133 22.56 43.8666 21.4934L35.3333 16.7467C33.4933 15.7334 30.5066 15.7334 28.6933 16.7734Z"
        fill="white" stroke="#292D32" stroke-width="2.5" stroke-linecap="round" stroke-linejoin="round" />
    <path d="M17.8665 24.6934L31.9998 32.88L46.0264 24.7467" fill="white" />
    <path d="M17.8665 24.6934L31.9998 32.88L46.0264 24.7467" stroke="#292D32" stroke-width="2.5" stroke-linecap="round"
        stroke-linejoin="round" />
    <path d="M31.9998 47.3867V32.8533" stroke="#292D32" stroke-width="2.5" stroke-linecap="round"
        stroke-linejoin="round" />
</svg>