<svg width="65" height="64" viewBox="0 0 65 64" fill="none" xmlns="http://www.w3.org/2000/svg">
<path d="M48.666 50.2934H46.6393C44.506 50.2934 42.4793 51.12 40.986 52.6134L36.4259 57.12C34.3459 59.1734 30.9594 59.1734 28.8794 57.12L24.3193 52.6134C22.826 51.12 20.7727 50.2934 18.666 50.2934H16.666C12.2393 50.2934 8.66602 46.7467 8.66602 42.3734V13.2534C8.66602 8.88004 12.2393 5.33337 16.666 5.33337H48.666C53.0927 5.33337 56.666 8.88004 56.666 13.2534V42.3467C56.666 46.72 53.0927 50.2934 48.666 50.2934Z" stroke="#292D32" stroke-width="2.5" stroke-miterlimit="10" stroke-linecap="round" stroke-linejoin="round"/>
<path d="M32.8509 23.8667H32.4508C29.6508 23.76 27.4375 21.4933 27.4375 18.6667C27.4375 15.7867 29.7575 13.4667 32.6375 13.4667C35.5175 13.4667 37.8376 15.8133 37.8376 18.6667C37.8642 21.4933 35.6509 23.7867 32.8509 23.8667Z" fill="#EE0033"/>
<path d="M32.8509 23.8667C32.7442 23.8667 32.5842 23.8667 32.4508 23.8667M32.8509 23.8667C35.6509 23.7867 37.8642 21.4933 37.8376 18.6667C37.8376 15.8133 35.5175 13.4667 32.6375 13.4667C29.7575 13.4667 27.4375 15.7867 27.4375 18.6667C27.4375 21.4933 29.6508 23.76 32.4508 23.8667M32.8509 23.8667H32.4508" stroke="#292D32" stroke-width="2.5" stroke-linecap="round" stroke-linejoin="round"/>
<path d="M25.3319 31.8933C21.7852 34.2666 21.7852 38.1333 25.3319 40.5066C29.3585 43.2 35.9719 43.2 39.9985 40.5066C43.5452 38.1333 43.5452 34.2666 39.9985 31.8933C35.9719 29.2266 29.3852 29.2266 25.3319 31.8933Z" fill="#EE0033" stroke="#292D32" stroke-width="2.5" stroke-linecap="round" stroke-linejoin="round"/>
</svg>
