<svg width="56" height="39" viewBox="0 0 56 39" fill="none" xmlns="http://www.w3.org/2000/svg">
<path d="M24.8236 28.2458C32.3474 28.2458 38.4466 22.1466 38.4466 14.6228C38.4466 7.09909 32.3474 0.999878 24.8236 0.999878C17.2999 0.999878 11.2007 7.09909 11.2007 14.6228C11.2007 22.1466 17.2999 28.2458 24.8236 28.2458Z" fill="#EE0033" stroke="#1C1F35" stroke-width="2" stroke-linecap="round" stroke-linejoin="round"/>
<path d="M5.34277 37.3278C7.72964 34.483 10.7106 32.1955 14.0761 30.6261C17.4417 29.0566 21.1101 28.2433 24.8236 28.2433C28.5371 28.2433 32.2055 29.0566 35.5711 30.6261C38.9366 32.1955 41.9176 34.483 44.3044 37.3278" stroke="#1C1F35" stroke-width="2" stroke-linecap="round" stroke-linejoin="round"/>
<path d="M51.8882 38.463L41.671 38.463L41.671 20.2991L51.8882 20.2991L51.8882 38.463Z" fill="white" stroke="#141414" stroke-linecap="round" stroke-linejoin="round"/>
<path d="M51.8882 27.1106L41.671 27.1106L41.671 20.2991L51.8882 20.2991L51.8882 27.1106Z" fill="#EE0033" stroke="black" stroke-linecap="round" stroke-linejoin="round"/>
<path d="M48.4824 24.8401L45.0767 24.8401" stroke="#141414" stroke-linecap="round" stroke-linejoin="round"/>
<path d="M48.4824 30.5159L45.0767 30.5159" stroke="#141414" stroke-linecap="round" stroke-linejoin="round"/>
<path d="M55.2935 28.246L55.2935 37.9033" stroke="#1C1F35" stroke-linecap="round" stroke-linejoin="round"/>
<path d="M6.71595 21.98C5.84022 20.8258 3.68155 16.9854 5.35156 9.77051" stroke="#1C1F35" stroke-width="1.5" stroke-linecap="round" stroke-linejoin="round"/>
<path d="M35.2407 16.0357C35.1924 17.1961 34.5511 20.6798 29.7041 24.3632" stroke="#1C1F35" stroke-linecap="round" stroke-linejoin="round"/>
</svg>
