<svg width="50" height="56" viewBox="0 0 50 56" fill="none" xmlns="http://www.w3.org/2000/svg">
<path d="M3.9585 18.012L25.0387 29.8464L24.6688 52.7758L3.9585 40.9413V18.012Z" fill="#EE0033"/>
<path d="M25.4087 4.32849L46.8587 16.5328L37.2432 21.7104L15.4233 9.87591L25.4087 4.32849Z" fill="#EE0033"/>
<path d="M48.2494 40.7107V17.5031C48.2476 17.1678 48.1574 16.839 47.988 16.5497C47.8186 16.2605 47.5759 16.021 47.2844 15.8555L26.5717 4.20458C26.2926 4.04345 25.976 3.95862 25.6538 3.95862C25.3315 3.95862 25.0149 4.04345 24.7358 4.20458L4.02313 15.8555C3.73162 16.021 3.48892 16.2605 3.31949 16.5497C3.15007 16.839 3.05991 17.1678 3.05811 17.5031V40.7107C3.05991 41.0459 3.15007 41.3747 3.31949 41.664C3.48892 41.9533 3.73162 42.1927 4.02313 42.3583L24.7358 54.0092C25.0149 54.1703 25.3315 54.2551 25.6538 54.2551C25.976 54.2551 26.2926 54.1703 26.5717 54.0092L47.2844 42.3583C47.5759 42.1927 47.8186 41.9533 47.988 41.664C48.1574 41.3747 48.2476 41.0459 48.2494 40.7107V40.7107Z" stroke="#1C1F35" stroke-width="2" stroke-linecap="round" stroke-linejoin="round"/>
<path d="M37.187 34.8734V22.6341L14.356 10.0417" stroke="#1C1F35" stroke-width="2" stroke-linecap="round" stroke-linejoin="round"/>
<path d="M47.9904 16.5381L25.8655 29.1069L3.31689 16.5381" stroke="#1C1F35" stroke-width="2" stroke-linecap="round" stroke-linejoin="round"/>
<path d="M25.8661 29.1069L25.6543 54.2446" stroke="#1C1F35" stroke-width="2" stroke-linecap="round" stroke-linejoin="round"/>
<path d="M1.00013 13.0697L11.6353 6.91711" stroke="#1C1F35" stroke-width="2" stroke-linecap="round" stroke-linejoin="round"/>
<path d="M29.8468 1.00001L40.4873 7.14331" stroke="#1C1F35" stroke-width="2" stroke-linecap="round" stroke-linejoin="round"/>
<path d="M40.4872 41.6809L29.8467 47.8242" stroke="#1C1F35" stroke-width="2" stroke-linecap="round" stroke-linejoin="round"/>
</svg>
