<svg width="53" height="50" viewBox="0 0 53 50" fill="none" xmlns="http://www.w3.org/2000/svg">
<path d="M19.0664 29.8539C19.0664 32.5414 21.1289 34.708 23.6914 34.708H28.9206C31.1497 34.708 32.9622 32.8122 32.9622 30.4789C32.9622 27.9372 31.8581 27.0414 30.2122 26.458L21.8164 23.5414C20.1706 22.958 19.0664 22.0622 19.0664 19.5205C19.0664 17.1872 20.8789 15.2914 23.1081 15.2914H28.3372C30.8997 15.2914 32.9622 17.458 32.9622 20.1455" stroke="#EE0033" stroke-width="3" stroke-linecap="round" stroke-linejoin="round"/>
<path d="M26 12.5V37.5" stroke="#EE0033" stroke-width="3" stroke-linecap="round" stroke-linejoin="round"/>
<path d="M25.9998 45.8333C37.5058 45.8333 46.8332 36.5059 46.8332 25C46.8332 13.494 37.5058 4.16663 25.9998 4.16663C14.4939 4.16663 5.1665 13.494 5.1665 25C5.1665 36.5059 14.4939 45.8333 25.9998 45.8333Z" stroke="#292D32" stroke-width="2" stroke-linecap="round" stroke-linejoin="round"/>
<path d="M1.47367 13.8054C1.63098 12.3652 2.70306 8.09211 8.87549 4" stroke="#1C1F35" stroke-width="1.5" stroke-linecap="round" stroke-linejoin="round"/>
<path d="M50.8687 34.9999C50.7173 36.4408 49.6629 40.7182 43.5073 44.8357" stroke="#1C1F35" stroke-width="1.5" stroke-linecap="round" stroke-linejoin="round"/>
<path d="M32.1373 9.76521C33.2741 9.98393 36.6077 11.115 39.4663 16.2963" stroke="#1C1F35" stroke-linecap="round" stroke-linejoin="round"/>
</svg>
