<svg width="74" height="45" viewBox="0 0 74 45" fill="none" xmlns="http://www.w3.org/2000/svg">
<path d="M17.1958 43.7283H52.8264" stroke="#1C1F35" stroke-width="2" stroke-linecap="round" stroke-linejoin="round"/>
<path d="M34.1113 28.8694L49.5299 19.5868" stroke="#1C1F35" stroke-width="2" stroke-linecap="round" stroke-linejoin="round"/>
<path d="M9.6377 26.2987L15.6128 32.2738" stroke="#1C1F35" stroke-width="2" stroke-linecap="round" stroke-linejoin="round"/>
<path d="M1 24.1396L6.97512 30.1148" stroke="#1C1F35" stroke-width="2" stroke-linecap="round" stroke-linejoin="round"/>
<path d="M15.6702 23.8698L25.0647 32.8815C26.3174 34.0845 27.9156 34.8412 29.6217 35.0389C31.3277 35.2367 33.0506 34.8651 34.534 33.9793L72.2615 11.5138L67.6265 5.69326C66.4208 4.18468 64.7282 3.16762 62.8545 2.82585C60.9808 2.48407 59.0495 2.84012 57.4097 3.82965L46.3456 10.4927L31.3941 5.38692L27.2825 7.19947C26.9749 7.33452 26.7054 7.54674 26.4989 7.81655C26.2924 8.08637 26.1556 8.4051 26.101 8.74336C26.0463 9.08162 26.0757 9.42853 26.1864 9.75209C26.2971 10.0757 26.4855 10.3655 26.7343 10.5948L34.3844 17.6408L27.4071 21.7254L20.4297 18.6619L16.2433 20.5C15.9388 20.634 15.6716 20.8438 15.4661 21.1102C15.2606 21.3767 15.1231 21.6914 15.0662 22.0259C15.0093 22.3605 15.0347 22.7043 15.1402 23.0263C15.2457 23.3482 15.4278 23.6382 15.6702 23.8698V23.8698Z" stroke="#1C1F35" stroke-width="2" stroke-linecap="round" stroke-linejoin="round"/>
<path d="M68.4823 7.01814C62.4925 11.7227 56.5798 12.3139 52.2866 7.01814L55.6599 4.8255C59.8519 2.10074 65.434 3.05529 68.4823 7.01814Z" fill="#EE0033" stroke="#1C1F35" stroke-width="2"/>
</svg>
